<svg id="svg" version="1.1" width="2400" height="734" xmlns="http://www.w3.org/2000/svg" xmlns:xlink="http://www.w3.org/1999/xlink" style="display: block;"><g id="svgg"><path id="path0" d="M20.700 7.033 C 20.563 7.171,20.500 7.998,20.500 9.674 L 20.500 12.115 17.974 12.224 C 16.584 12.284,14.836 12.333,14.090 12.333 C 12.427 12.333,12.333 12.414,12.333 13.843 L 12.333 14.953 10.125 15.043 C 7.699 15.141,7.420 15.205,7.120 15.728 C 6.751 16.372,6.743 112.354,7.113 112.625 C 7.269 112.740,7.870 112.833,8.449 112.833 L 9.500 112.833 9.500 113.885 C 9.500 114.464,9.594 115.063,9.708 115.219 C 9.903 115.484,11.595 115.500,35.500 115.460 L 61.083 115.417 61.132 114.143 L 61.180 112.869 62.412 112.807 C 63.090 112.773,63.706 112.683,63.780 112.608 C 63.958 112.431,63.959 17.496,63.781 16.455 C 63.581 15.285,63.276 15.146,60.687 15.041 L 58.541 14.954 58.458 13.791 C 58.358 12.389,58.296 12.339,56.651 12.336 C 55.956 12.334,54.255 12.284,52.871 12.224 L 50.357 12.116 50.303 9.635 C 50.261 7.652,50.200 7.122,50.000 6.996 C 49.602 6.745,20.952 6.782,20.700 7.033 M54.809 23.107 L 55.833 23.214 55.811 45.565 C 55.799 57.859,55.743 67.654,55.686 67.333 L 55.583 66.750 51.890 66.705 C 47.536 66.652,47.667 66.604,47.667 68.262 L 47.667 69.333 46.208 69.347 C 42.807 69.380,42.333 69.593,42.333 71.093 L 42.333 71.956 41.125 72.039 C 38.733 72.202,37.444 72.870,37.209 74.066 L 37.074 74.750 35.669 74.833 C 34.068 74.928,34.048 74.950,34.017 76.625 L 34.000 77.500 31.792 77.502 C 28.887 77.506,28.766 77.566,28.701 79.046 L 28.651 80.167 27.617 80.176 C 24.321 80.204,23.336 80.561,23.331 81.727 C 23.326 82.920,23.256 82.982,21.857 83.035 L 20.583 83.083 20.535 84.375 L 20.486 85.667 18.005 85.667 C 15.972 85.667,15.477 85.714,15.262 85.929 C 15.024 86.167,15.000 83.327,15.000 54.688 L 15.000 23.186 15.708 23.122 C 16.954 23.010,53.744 22.996,54.809 23.107 M72.278 31.444 C 71.979 31.743,72.158 93.507,72.458 93.630 C 73.095 93.892,85.333 93.769,85.504 93.500 C 85.599 93.349,85.663 89.026,85.664 82.625 L 85.667 72.000 96.292 71.997 C 102.135 71.996,107.020 71.930,107.146 71.850 C 107.290 71.758,107.407 71.265,107.460 70.519 L 107.545 69.333 108.656 69.333 C 110.049 69.333,110.167 69.215,110.167 67.813 L 110.167 66.693 111.292 66.585 C 112.934 66.427,112.828 66.557,112.873 64.630 C 112.895 63.688,112.951 67.379,112.998 72.833 L 113.083 82.750 114.371 82.799 L 115.658 82.847 115.704 85.549 L 115.750 88.250 117.042 88.299 L 118.333 88.347 118.333 89.246 C 118.333 90.864,118.456 91.000,119.913 91.000 L 121.167 91.000 121.169 92.042 C 121.174 93.904,120.481 93.811,134.333 93.805 C 146.455 93.799,145.403 93.943,145.465 92.285 L 145.514 91.000 148.084 91.000 C 151.060 91.000,151.000 91.034,151.000 89.363 L 151.000 88.371 152.176 88.304 C 152.970 88.260,153.403 88.159,153.507 87.994 C 153.597 87.853,153.678 83.298,153.700 77.167 C 153.724 70.396,153.770 67.982,153.827 70.465 C 153.929 74.898,153.837 74.660,155.454 74.664 L 156.492 74.667 156.538 77.375 L 156.583 80.083 157.875 80.132 L 159.167 80.181 159.167 82.662 C 159.167 85.635,159.183 85.667,160.735 85.667 L 161.780 85.667 161.891 89.612 C 161.952 91.782,162.046 93.601,162.098 93.654 C 162.251 93.807,172.457 93.765,172.611 93.611 C 172.687 93.535,172.774 91.716,172.803 89.570 L 172.855 85.667 173.855 85.667 C 175.534 85.667,175.500 85.728,175.500 82.751 L 175.500 80.181 176.785 80.132 C 177.995 80.086,178.076 80.059,178.185 79.667 L 178.300 79.250 178.317 79.708 L 178.333 80.167 179.667 80.167 L 181.000 80.167 181.002 86.458 C 181.005 93.042,181.028 93.402,181.475 93.597 C 181.949 93.804,193.528 93.886,194.042 93.687 L 194.500 93.508 194.500 89.587 L 194.500 85.667 195.625 85.664 C 197.296 85.660,197.241 85.756,197.307 82.756 L 197.363 80.167 198.482 80.167 C 199.097 80.167,199.680 80.087,199.778 79.989 C 199.904 79.863,199.979 80.207,200.035 81.171 C 200.127 82.768,200.184 82.827,201.625 82.831 L 202.667 82.833 202.676 84.875 C 202.682 85.998,202.739 87.217,202.804 87.583 L 202.921 88.250 204.204 88.299 L 205.486 88.347 205.535 89.632 L 205.583 90.917 208.185 90.962 L 210.786 91.008 210.881 92.270 C 210.934 92.964,211.026 93.581,211.086 93.641 C 211.319 93.874,231.932 93.764,232.216 93.529 C 232.387 93.386,232.523 92.896,232.595 92.160 L 232.708 91.013 233.979 90.965 L 235.250 90.917 235.299 89.625 L 235.347 88.333 236.410 88.333 C 238.099 88.333,238.000 88.512,238.000 85.482 L 238.000 82.833 239.321 82.833 C 240.439 82.833,240.654 82.789,240.718 82.542 C 240.760 82.381,240.805 84.725,240.817 87.750 C 240.829 90.889,240.906 93.357,240.997 93.500 C 241.167 93.769,253.405 93.892,254.042 93.630 C 254.316 93.517,254.333 92.647,254.333 78.672 L 254.333 63.833 255.480 63.833 C 257.057 63.833,257.066 63.816,257.142 60.893 L 257.204 58.500 261.269 58.500 L 265.333 58.500 265.333 76.005 C 265.333 92.520,265.350 93.517,265.625 93.630 C 265.785 93.696,273.629 93.750,283.055 93.750 C 302.710 93.750,300.667 93.946,300.667 92.058 L 300.667 91.014 301.958 90.965 L 303.250 90.917 303.299 89.625 L 303.347 88.333 304.594 88.333 C 306.161 88.333,306.167 88.322,306.167 85.156 L 306.167 82.833 307.500 82.833 L 308.833 82.833 308.833 85.383 C 308.833 88.374,308.812 88.333,310.353 88.333 L 311.473 88.333 311.582 89.458 C 311.738 91.079,311.663 91.000,313.059 91.000 L 314.296 91.000 314.361 92.158 C 314.460 93.905,313.680 93.805,327.437 93.821 C 339.748 93.836,338.595 93.989,338.741 92.317 L 338.856 91.000 341.311 91.000 C 342.812 91.000,343.835 90.932,343.943 90.824 C 344.066 90.701,344.145 91.076,344.208 92.084 C 344.257 92.874,344.350 93.572,344.413 93.635 C 344.705 93.926,357.144 93.761,357.442 93.463 C 357.680 93.225,357.742 92.759,357.802 90.761 L 357.875 88.347 359.146 88.298 L 360.417 88.250 360.465 86.958 L 360.514 85.667 361.320 85.667 C 361.763 85.667,362.358 85.620,362.642 85.563 L 363.159 85.460 363.209 82.772 C 363.253 80.420,363.264 80.564,363.299 83.917 C 363.345 88.389,363.286 88.218,364.802 88.303 L 365.957 88.369 366.045 89.466 C 366.152 90.800,366.365 91.000,367.675 91.000 L 368.619 91.000 368.731 92.205 C 368.792 92.867,368.919 93.486,369.013 93.580 C 369.287 93.854,381.757 93.809,382.033 93.534 C 382.264 93.303,382.455 84.641,382.253 83.549 L 382.154 83.014 380.869 82.965 L 379.583 82.917 379.535 81.643 C 379.480 80.182,379.469 80.173,377.792 80.169 L 376.833 80.167 376.826 77.125 C 376.815 72.532,376.741 72.313,375.169 72.199 L 374.167 72.127 374.167 70.749 L 374.167 69.372 375.214 69.260 C 376.851 69.085,376.743 69.373,376.803 65.013 L 376.856 61.180 378.136 61.132 L 379.417 61.083 379.500 59.833 L 379.583 58.583 380.823 58.460 C 381.504 58.392,382.126 58.242,382.204 58.126 C 382.535 57.640,382.277 48.160,381.926 47.903 C 381.541 47.621,369.606 47.552,369.167 47.830 C 369.000 47.935,368.889 48.367,368.833 49.119 L 368.750 50.250 367.620 50.347 C 366.231 50.466,366.184 50.512,366.058 51.867 L 365.955 52.961 364.812 53.074 C 363.301 53.223,363.340 53.109,363.298 57.531 L 363.263 61.250 363.173 58.583 L 363.083 55.917 361.833 55.833 L 360.583 55.750 360.536 54.583 C 360.478 53.159,360.315 53.000,358.910 53.000 L 357.883 53.000 357.767 50.792 C 357.587 47.382,358.205 47.636,350.250 47.702 L 344.417 47.750 344.250 49.250 C 344.152 50.130,344.028 50.664,343.948 50.542 C 343.850 50.390,343.116 50.333,341.240 50.333 L 338.667 50.333 338.667 49.200 C 338.667 47.525,339.747 47.667,326.978 47.667 C 313.743 47.667,314.624 47.548,314.413 49.364 L 314.301 50.333 313.062 50.333 C 311.662 50.333,311.738 50.254,311.582 51.875 L 311.473 53.000 310.415 53.000 C 308.848 53.000,308.833 53.027,308.833 56.005 L 308.833 58.486 307.542 58.535 L 306.250 58.583 306.167 60.250 C 306.120 61.185,306.035 61.752,305.974 61.542 C 305.873 61.195,305.768 61.167,304.599 61.167 L 303.333 61.167 303.333 58.417 L 303.333 55.667 304.649 55.667 C 306.313 55.667,306.167 56.304,306.164 49.028 C 306.162 41.528,306.303 42.167,304.647 42.167 L 303.333 42.167 303.331 38.375 C 303.328 33.687,303.591 34.096,300.529 34.030 L 298.046 33.977 297.936 32.801 C 297.876 32.154,297.787 31.559,297.737 31.479 C 297.554 31.182,265.549 31.299,265.434 31.597 C 265.379 31.742,265.333 35.417,265.333 39.764 L 265.333 47.667 253.246 47.667 L 241.158 47.667 240.996 48.094 C 240.903 48.338,240.831 50.788,240.828 53.803 C 240.825 57.472,240.771 58.994,240.653 58.792 C 240.516 58.555,240.248 58.500,239.242 58.500 L 238.000 58.500 238.000 55.913 L 238.000 53.325 237.572 53.163 C 237.337 53.073,236.741 53.000,236.246 53.000 L 235.347 53.000 235.299 51.708 L 235.250 50.417 233.875 50.368 L 232.500 50.320 232.500 49.428 C 232.500 48.799,232.406 48.421,232.181 48.143 L 231.863 47.750 221.511 47.705 C 213.248 47.668,211.145 47.702,211.091 47.871 C 211.054 47.988,210.975 48.586,210.916 49.200 L 210.808 50.318 208.147 50.367 C 205.108 50.424,205.371 50.573,205.293 48.750 L 205.250 47.750 199.417 47.702 C 196.208 47.676,193.339 47.698,193.040 47.751 C 191.934 47.950,191.923 48.016,191.858 54.951 L 191.800 61.167 190.692 61.169 C 189.389 61.172,189.221 61.252,189.123 61.917 L 189.050 62.417 189.025 61.893 C 188.995 61.256,188.795 61.167,187.403 61.167 L 186.333 61.167 186.333 58.578 C 186.333 56.654,186.280 55.973,186.125 55.923 C 186.010 55.887,185.410 55.808,184.792 55.749 L 183.667 55.640 183.667 51.935 C 183.667 49.202,183.611 48.154,183.455 47.941 C 183.127 47.493,171.002 47.593,170.547 48.047 C 170.248 48.347,170.197 49.505,170.018 60.125 L 170.000 61.167 168.867 61.167 C 168.207 61.167,167.650 61.250,167.533 61.367 C 167.378 61.522,167.289 61.522,167.133 61.367 C 167.018 61.251,166.464 61.167,165.822 61.167 L 164.711 61.167 164.627 55.042 C 164.537 48.546,164.484 48.112,163.742 47.830 C 163.076 47.577,151.386 47.613,151.228 47.869 C 151.159 47.980,151.070 48.703,151.029 49.475 C 150.979 50.445,150.909 50.795,150.803 50.606 C 150.672 50.372,150.288 50.333,148.075 50.333 L 145.500 50.333 145.500 49.187 C 145.500 47.517,146.596 47.652,133.442 47.704 C 120.258 47.756,121.404 47.607,121.228 49.296 L 121.119 50.333 119.889 50.333 C 118.458 50.333,118.333 50.474,118.333 52.094 L 118.333 53.000 117.322 53.000 C 116.766 53.000,116.166 53.078,115.989 53.173 C 115.673 53.341,115.667 53.234,115.667 48.078 C 115.667 41.880,115.739 42.167,114.182 42.167 L 113.043 42.167 112.922 39.515 C 112.785 36.491,112.900 36.673,111.132 36.669 L 110.181 36.667 110.132 35.375 L 110.083 34.083 108.814 34.035 L 107.544 33.987 107.462 32.849 C 107.418 32.224,107.328 31.627,107.264 31.523 C 107.135 31.314,72.486 31.237,72.278 31.444 M103.064 32.388 C 103.572 32.541,100.580 32.583,89.285 32.583 C 73.080 32.583,74.387 32.483,73.620 33.791 C 72.833 35.135,72.839 34.899,72.836 62.598 C 72.833 92.211,72.759 90.550,74.140 91.857 L 74.781 92.463 77.036 92.584 C 78.277 92.650,79.845 92.660,80.521 92.606 C 81.344 92.540,81.599 92.556,81.292 92.656 C 80.194 93.012,74.558 92.941,74.053 92.565 C 72.637 91.510,72.673 92.285,72.673 62.500 C 72.673 32.725,72.644 33.350,74.050 32.493 C 74.701 32.096,101.773 31.998,103.064 32.388 M293.564 32.388 C 294.073 32.541,291.393 32.583,281.118 32.583 C 265.632 32.583,266.954 32.331,266.261 35.417 L 265.999 36.583 266.079 35.193 C 266.167 33.653,266.525 32.845,267.307 32.421 C 267.897 32.100,292.510 32.070,293.564 32.388 M108.216 34.820 C 108.706 35.007,109.501 35.927,109.497 36.304 C 109.496 36.458,109.325 36.283,109.117 35.917 C 108.826 35.402,108.531 35.162,107.828 34.865 C 106.989 34.511,107.306 34.474,108.216 34.820 M299.184 34.847 C 300.333 35.139,301.877 36.599,302.425 37.911 C 302.780 38.760,302.713 39.034,302.347 38.229 C 302.176 37.851,301.831 37.401,301.581 37.229 C 300.980 36.816,300.491 36.339,300.083 35.767 C 299.852 35.443,299.393 35.177,298.583 34.899 C 297.495 34.525,297.812 34.498,299.184 34.847 M265.958 44.958 C 265.931 46.494,265.908 45.237,265.908 42.167 C 265.908 39.096,265.931 37.840,265.958 39.375 C 265.986 40.910,265.986 43.423,265.958 44.958 M112.115 40.792 C 112.073 40.952,112.039 40.821,112.039 40.500 C 112.039 40.179,112.073 40.048,112.115 40.208 C 112.157 40.369,112.157 40.631,112.115 40.792 M112.617 42.612 C 112.759 42.827,113.136 43.128,113.457 43.280 C 114.647 43.845,114.663 43.933,114.684 50.000 C 114.714 58.900,114.898 60.173,115.971 58.883 L 116.359 58.417 116.010 59.125 C 115.688 59.777,115.608 59.833,115.013 59.833 L 114.366 59.833 114.254 61.708 C 114.192 62.740,114.166 67.361,114.196 71.977 L 114.250 80.371 115.019 81.067 C 115.443 81.450,115.911 82.001,116.061 82.290 C 116.401 82.947,116.411 83.250,116.072 82.626 C 115.935 82.374,115.523 82.015,115.155 81.828 C 113.770 81.121,113.835 81.664,113.834 70.801 L 113.833 61.185 113.419 60.718 L 113.004 60.250 112.682 60.662 C 112.470 60.933,112.322 61.473,112.250 62.245 C 112.057 64.305,111.338 65.667,110.442 65.667 C 110.160 65.667,109.440 66.448,109.099 67.123 C 108.799 67.717,108.378 68.038,107.140 68.611 C 106.099 69.093,106.254 68.797,107.327 68.253 C 107.769 68.029,108.308 67.616,108.524 67.336 C 109.555 65.996,110.252 65.224,110.679 64.948 C 111.269 64.568,111.753 63.558,112.013 62.167 C 112.343 60.400,112.690 59.863,113.540 59.801 L 114.250 59.750 114.355 58.000 C 114.412 57.038,114.468 53.661,114.480 50.496 L 114.500 44.743 113.996 44.131 C 113.719 43.795,113.363 43.478,113.204 43.426 C 112.781 43.287,112.163 42.241,112.192 41.711 L 112.217 41.250 112.289 41.735 C 112.328 42.002,112.476 42.396,112.617 42.612 M304.199 43.055 C 305.473 43.697,305.514 43.898,305.462 49.113 C 305.419 53.405,305.398 53.668,305.069 54.113 C 304.759 54.533,302.867 55.683,303.096 55.313 C 303.147 55.230,303.465 55.020,303.803 54.847 C 304.141 54.674,304.604 54.332,304.833 54.086 L 305.250 53.640 305.299 49.106 C 305.354 44.002,305.307 43.783,304.010 43.132 C 303.698 42.975,303.324 42.717,303.180 42.558 C 302.938 42.292,302.940 42.285,303.199 42.480 C 303.355 42.597,303.805 42.856,304.199 43.055 M98.346 44.133 C 99.382 44.478,99.464 44.544,99.831 45.328 C 100.295 46.320,100.663 46.683,101.684 47.157 C 102.979 47.759,103.803 52.427,102.833 53.667 C 102.455 54.151,102.402 53.941,102.750 53.333 C 103.119 52.687,103.067 50.398,102.667 49.667 C 102.491 49.346,102.344 49.144,102.340 49.218 C 102.330 49.422,97.833 44.884,97.833 44.669 C 97.833 43.881,86.038 43.593,85.219 44.362 L 84.833 44.725 84.833 51.603 L 84.833 58.481 85.204 58.741 C 85.521 58.963,86.381 59.000,91.245 58.999 C 97.542 58.998,97.358 59.027,98.414 57.859 C 98.750 57.486,99.171 57.135,99.349 57.078 C 99.535 57.019,99.624 56.893,99.559 56.780 C 99.497 56.672,99.509 56.640,99.586 56.710 C 99.663 56.779,99.899 56.673,100.112 56.473 C 100.325 56.273,100.532 56.143,100.573 56.184 C 100.640 56.251,99.596 58.460,99.411 58.645 C 98.784 59.272,86.044 59.427,85.061 58.820 L 84.500 58.473 84.500 51.681 L 84.500 44.889 85.119 44.270 L 85.738 43.651 91.494 43.709 C 96.887 43.764,97.319 43.791,98.346 44.133 M291.145 44.067 C 292.811 44.552,292.607 44.347,293.187 46.116 C 293.835 48.096,293.846 49.751,293.222 51.697 C 292.463 54.064,292.092 54.168,284.403 54.167 L 278.889 54.167 278.278 53.556 L 277.667 52.944 277.667 48.938 L 277.667 44.931 278.284 44.299 L 278.901 43.667 284.334 43.667 C 289.578 43.667,289.815 43.681,291.145 44.067 M278.439 44.439 L 278.000 44.879 278.000 48.994 C 278.000 54.430,277.214 53.833,284.378 53.833 C 289.835 53.833,290.833 53.750,290.833 53.297 C 290.833 53.214,290.910 53.194,291.004 53.253 C 291.098 53.311,291.157 53.296,291.135 53.221 C 291.055 52.940,291.538 52.308,292.200 51.828 C 292.576 51.556,292.832 51.333,292.769 51.333 C 292.705 51.333,292.807 51.169,292.994 50.969 C 293.592 50.326,293.410 46.667,292.779 46.667 C 292.687 46.667,292.659 46.619,292.717 46.561 C 292.775 46.503,292.535 46.248,292.185 45.994 C 291.834 45.740,291.388 45.275,291.194 44.961 C 290.609 44.015,290.504 44.000,284.432 44.000 L 278.879 44.000 278.439 44.439 M293.258 44.682 C 293.405 44.966,293.495 45.227,293.459 45.263 C 293.423 45.300,293.268 45.068,293.116 44.748 C 292.773 44.029,292.892 43.974,293.258 44.682 M96.667 45.833 C 96.667 47.189,96.973 47.500,98.311 47.500 L 99.288 47.500 99.375 48.585 C 99.488 49.990,99.628 50.140,100.889 50.201 L 101.917 50.250 101.965 51.606 L 102.013 52.962 100.830 53.028 C 99.413 53.109,99.339 53.192,99.336 54.708 L 99.333 55.833 98.292 55.836 C 96.867 55.839,96.775 55.925,96.696 57.324 L 96.629 58.500 91.148 58.500 L 85.667 58.500 85.667 51.667 L 85.667 44.833 91.167 44.833 L 96.667 44.833 96.667 45.833 M289.865 45.937 C 289.951 47.292,290.173 47.500,291.532 47.500 L 292.500 47.500 292.500 48.897 L 292.500 50.295 291.417 50.363 C 290.072 50.449,289.949 50.572,289.863 51.917 L 289.795 53.000 284.314 53.000 L 278.833 53.000 278.833 48.917 L 278.833 44.833 284.314 44.833 L 289.795 44.833 289.865 45.937 M101.000 45.917 C 101.311 46.237,101.528 46.500,101.482 46.500 C 101.436 46.500,101.144 46.237,100.833 45.917 C 100.522 45.596,100.305 45.333,100.351 45.333 C 100.397 45.333,100.689 45.596,101.000 45.917 M254.986 49.289 C 257.288 49.476,256.521 49.990,253.333 50.395 C 251.350 50.647,250.524 50.506,250.023 49.829 L 249.657 49.333 250.152 49.333 C 250.424 49.333,250.697 49.253,250.758 49.155 C 250.867 48.977,251.327 48.991,254.986 49.289 M372.862 49.282 L 373.474 49.417 373.079 49.875 C 372.861 50.127,372.618 50.333,372.538 50.333 C 371.336 50.333,369.643 51.473,369.155 52.610 C 368.955 53.077,368.667 53.409,368.302 53.593 C 367.529 53.984,367.020 54.481,366.647 55.208 C 366.471 55.552,366.030 56.029,365.667 56.269 C 365.305 56.509,364.851 56.941,364.660 57.228 C 364.441 57.556,364.344 57.626,364.398 57.417 C 364.705 56.229,364.715 56.117,364.499 56.250 C 364.381 56.324,364.464 56.063,364.684 55.671 C 365.032 55.051,366.500 53.782,366.500 54.101 C 366.500 54.166,366.650 54.082,366.834 53.916 C 367.018 53.749,367.134 53.578,367.091 53.535 C 366.990 53.434,367.976 52.000,368.147 52.000 C 368.263 52.000,369.248 51.027,370.682 49.493 C 371.205 48.934,371.256 48.929,372.862 49.282 M380.451 49.609 C 380.819 49.998,380.997 50.329,380.945 50.526 C 380.901 50.695,380.925 50.797,380.998 50.751 C 381.072 50.706,381.176 50.785,381.231 50.926 C 381.295 51.094,381.262 51.143,381.136 51.065 C 380.999 50.980,380.985 51.038,381.085 51.264 C 381.163 51.440,381.258 52.604,381.296 53.852 L 381.364 56.120 380.839 56.719 C 380.549 57.048,380.149 57.367,379.948 57.427 C 379.747 57.488,379.360 57.735,379.086 57.977 C 378.637 58.374,378.621 58.377,378.919 58.017 C 379.101 57.798,379.547 57.401,379.910 57.135 C 382.235 55.434,381.433 51.295,378.604 50.397 C 378.271 50.291,377.683 49.699,377.672 49.458 C 377.669 49.390,377.887 49.333,378.157 49.333 C 378.426 49.333,378.693 49.258,378.750 49.167 C 378.995 48.770,379.876 48.998,380.451 49.609 M143.614 49.936 C 144.235 50.557,145.663 51.320,146.250 51.343 C 146.433 51.351,146.733 51.428,146.917 51.515 C 147.158 51.629,147.033 51.650,146.459 51.590 C 146.025 51.544,145.311 51.326,144.875 51.104 C 144.438 50.883,143.432 50.504,142.640 50.263 C 140.674 49.663,140.412 49.333,141.902 49.333 C 142.954 49.333,143.042 49.364,143.614 49.936 M245.265 49.650 C 245.107 49.824,244.705 50.018,244.372 50.081 C 242.932 50.351,242.187 50.997,241.731 52.371 L 241.494 53.083 241.585 52.358 C 241.813 50.545,242.965 49.333,244.462 49.333 C 245.522 49.333,245.544 49.342,245.265 49.650 M336.688 49.827 C 337.088 50.368,338.287 51.024,339.583 51.412 L 340.417 51.661 339.661 51.589 C 339.246 51.549,338.412 51.285,337.808 51.003 C 337.204 50.720,336.198 50.342,335.571 50.163 C 333.801 49.657,333.627 49.333,335.126 49.333 C 336.260 49.333,336.343 49.360,336.688 49.827 M211.417 51.078 C 211.061 51.370,210.700 51.493,210.167 51.504 C 208.299 51.544,207.837 51.722,206.886 52.770 L 205.996 53.750 206.384 52.833 C 206.964 51.465,207.499 51.168,209.400 51.161 C 210.399 51.157,211.059 51.074,211.333 50.917 C 211.951 50.564,211.978 50.618,211.417 51.078 M372.153 50.899 C 372.012 51.033,370.833 51.480,370.833 51.400 C 370.833 51.305,371.839 50.850,372.069 50.840 C 372.153 50.836,372.191 50.863,372.153 50.899 M252.125 51.115 C 251.965 51.157,251.702 51.157,251.542 51.115 C 251.381 51.073,251.512 51.039,251.833 51.039 C 252.154 51.039,252.285 51.073,252.125 51.115 M121.771 51.439 C 121.097 51.646,120.638 52.011,119.076 53.580 C 116.934 55.732,116.892 55.795,116.572 57.305 L 116.336 58.417 116.415 57.022 C 116.504 55.426,116.794 54.780,117.676 54.218 C 118.750 53.533,119.141 53.163,119.446 52.542 C 119.887 51.642,120.689 51.164,121.733 51.178 L 122.583 51.190 121.771 51.439 M233.430 51.508 C 233.772 51.720,234.139 52.179,234.394 52.716 C 235.062 54.120,234.817 54.016,233.540 52.351 C 233.300 52.038,232.816 51.739,232.207 51.527 L 231.250 51.193 232.064 51.180 C 232.611 51.171,233.058 51.278,233.430 51.508 M314.899 51.480 C 314.199 51.719,313.706 52.115,312.115 53.715 C 310.107 55.733,309.998 55.915,309.734 57.667 C 309.572 58.733,309.245 59.320,308.381 60.089 C 307.470 60.900,307.358 61.380,307.343 64.529 C 307.333 66.722,307.003 67.667,306.249 67.667 C 305.897 67.667,305.331 66.600,305.354 65.980 C 305.375 65.425,305.377 65.427,305.485 66.088 C 305.546 66.457,305.719 66.935,305.869 67.149 L 306.142 67.539 306.571 67.111 C 306.999 66.683,307.000 66.673,307.001 63.799 C 307.001 60.502,307.119 60.119,308.324 59.505 C 309.234 59.041,309.443 58.638,309.561 57.125 C 309.704 55.295,310.401 54.000,311.241 54.000 C 311.512 54.000,312.287 53.165,312.650 52.483 C 313.110 51.616,313.889 51.164,314.900 51.178 L 315.750 51.190 314.899 51.480 M293.548 52.669 C 293.465 52.985,293.167 53.309,293.167 53.082 C 293.167 52.940,293.497 52.333,293.574 52.333 C 293.608 52.333,293.596 52.485,293.548 52.669 M369.645 52.917 C 369.455 53.237,369.268 53.500,369.228 53.500 C 369.142 53.500,369.473 52.839,369.709 52.542 C 370.020 52.149,369.989 52.334,369.645 52.917 M358.250 54.048 C 358.936 54.396,359.396 54.947,359.739 55.830 L 360.028 56.577 359.675 56.258 C 359.481 56.082,359.178 55.704,359.000 55.417 C 358.823 55.130,358.490 54.795,358.261 54.673 C 358.032 54.550,357.644 54.142,357.399 53.766 C 356.968 53.106,356.966 53.095,357.352 53.439 C 357.571 53.634,357.975 53.908,358.250 54.048 M151.061 54.082 C 151.211 53.932,151.333 53.690,151.333 53.544 C 151.333 53.397,151.376 53.320,151.428 53.373 C 151.565 53.509,151.140 56.836,150.997 56.748 C 150.931 56.707,150.830 56.381,150.773 56.023 C 150.716 55.664,150.443 54.943,150.168 54.419 C 149.533 53.212,149.540 53.145,150.227 53.811 C 150.746 54.315,150.808 54.335,151.061 54.082 M344.119 54.226 C 344.251 54.304,344.375 54.157,344.479 53.798 L 344.637 53.250 344.639 53.833 C 344.640 54.154,344.550 55.017,344.438 55.750 L 344.234 57.083 344.011 56.167 C 343.888 55.663,343.592 54.875,343.353 54.417 C 342.725 53.212,342.725 53.212,343.348 53.679 C 343.661 53.915,344.008 54.161,344.119 54.226 M183.900 56.667 C 184.759 56.667,185.467 57.909,185.681 59.797 C 185.869 61.452,186.068 61.842,186.946 62.274 C 187.927 62.757,188.239 63.461,188.189 65.074 C 188.165 65.817,188.228 66.640,188.328 66.902 C 188.547 67.477,188.436 67.670,188.171 67.175 C 188.067 66.981,187.921 66.095,187.846 65.206 L 187.710 63.590 186.960 62.920 C 186.017 62.077,185.879 61.806,185.400 59.845 C 185.046 58.396,184.945 58.189,184.295 57.583 C 183.902 57.217,183.487 56.707,183.373 56.450 C 183.089 55.809,183.125 55.649,183.429 56.208 C 183.565 56.460,183.777 56.667,183.900 56.667 M237.154 58.191 C 237.168 58.504,238.237 59.500,238.558 59.500 C 238.805 59.500,239.541 60.251,239.813 60.781 C 240.218 61.569,240.023 69.601,239.563 71.063 C 239.503 71.253,239.531 71.334,239.635 71.270 C 239.983 71.054,239.406 72.235,238.897 72.778 C 238.374 73.337,237.485 73.547,237.250 73.167 C 237.193 73.075,236.922 73.000,236.647 73.000 L 236.148 73.000 236.428 72.526 C 236.586 72.259,236.971 71.959,237.312 71.839 C 239.462 71.082,239.734 70.321,239.631 65.334 C 239.542 61.012,239.438 60.547,238.444 60.014 C 237.605 59.566,236.856 58.436,236.762 57.478 L 236.674 56.583 236.908 57.250 C 237.036 57.617,237.147 58.040,237.154 58.191 M100.355 58.125 C 100.268 58.285,99.989 58.604,99.735 58.833 C 99.351 59.179,99.370 59.130,99.844 58.545 C 100.464 57.781,100.600 57.669,100.355 58.125 M135.238 58.089 C 135.574 58.230,136.165 58.672,136.550 59.072 C 137.272 59.821,137.903 60.091,139.374 60.279 C 139.808 60.334,140.258 60.500,140.374 60.648 C 140.551 60.876,140.545 60.888,140.333 60.731 C 140.196 60.629,139.502 60.499,138.791 60.442 C 136.937 60.292,135.667 59.598,135.667 58.733 C 135.667 58.328,134.932 58.084,133.417 57.988 L 131.917 57.892 133.271 57.863 C 134.171 57.843,134.831 57.919,135.238 58.089 M261.708 57.958 C 260.860 57.988,259.473 57.988,258.625 57.958 C 257.777 57.927,258.471 57.903,260.167 57.903 C 261.862 57.903,262.556 57.927,261.708 57.958 M302.790 60.375 C 302.756 60.856,302.728 60.462,302.728 59.500 C 302.728 58.538,302.756 58.144,302.790 58.625 C 302.823 59.106,302.823 59.894,302.790 60.375 M327.380 57.955 C 326.993 57.990,326.318 57.990,325.880 57.956 C 325.442 57.922,325.758 57.893,326.583 57.892 C 327.408 57.892,327.767 57.920,327.380 57.955 M265.958 80.792 C 265.934 84.985,265.913 81.554,265.913 73.167 C 265.913 64.779,265.934 61.348,265.958 65.542 C 265.983 69.735,265.983 76.598,265.958 80.792 M324.811 58.292 C 324.678 58.452,324.443 58.865,324.287 59.209 C 324.008 59.827,323.153 60.504,322.667 60.493 C 322.529 60.490,322.645 60.387,322.925 60.266 C 323.450 60.037,324.333 59.113,324.333 58.792 C 324.333 58.605,324.818 58.000,324.968 58.000 C 325.014 58.000,324.943 58.131,324.811 58.292 M328.766 58.214 C 328.958 58.326,329.355 58.693,329.649 59.031 C 330.214 59.682,331.146 60.082,332.540 60.271 C 332.974 60.330,333.424 60.499,333.540 60.647 C 333.718 60.876,333.712 60.889,333.500 60.731 C 333.362 60.629,332.662 60.498,331.944 60.440 C 330.397 60.316,329.547 59.956,329.183 59.272 C 329.036 58.997,328.737 58.599,328.517 58.386 C 328.087 57.970,328.204 57.888,328.766 58.214 M131.103 59.228 C 130.855 59.823,129.978 60.511,129.500 60.486 C 129.362 60.479,129.449 60.384,129.693 60.276 C 130.321 59.997,130.770 59.555,131.007 58.983 C 131.120 58.711,131.243 58.521,131.282 58.560 C 131.321 58.599,131.240 58.900,131.103 59.228 M134.696 59.676 C 134.781 61.182,134.739 61.161,137.708 61.164 L 140.167 61.167 140.167 70.655 L 140.167 80.143 137.597 80.197 C 134.609 80.259,134.773 80.170,134.693 81.761 L 134.630 83.000 133.315 83.000 L 132.000 83.000 132.000 81.783 C 132.000 80.256,131.910 80.167,130.383 80.167 L 129.167 80.167 129.167 77.601 C 129.167 74.664,129.264 74.833,127.567 74.833 L 126.494 74.833 126.539 70.708 L 126.583 66.583 127.833 66.500 L 129.083 66.417 129.129 63.792 L 129.175 61.167 130.388 61.167 C 131.895 61.167,132.000 61.067,132.000 59.633 L 132.000 58.500 133.315 58.500 L 134.629 58.500 134.696 59.676 M221.833 58.655 C 221.833 59.079,222.984 59.986,223.839 60.235 C 225.168 60.623,225.671 61.085,225.761 62.001 C 225.838 62.771,225.652 62.483,225.438 61.498 C 225.331 61.004,224.677 60.589,223.750 60.426 C 223.383 60.361,222.755 60.126,222.354 59.904 C 221.303 59.322,219.506 59.329,218.395 59.920 C 217.961 60.150,217.325 60.384,216.980 60.439 C 216.005 60.595,215.725 61.033,215.593 62.611 C 215.485 63.903,215.497 63.977,215.836 64.084 C 216.032 64.146,216.161 64.228,216.123 64.266 C 215.885 64.504,214.980 63.932,215.076 63.604 C 215.133 63.409,215.264 62.800,215.367 62.250 C 215.561 61.215,216.150 60.337,216.656 60.330 C 217.264 60.321,218.350 59.658,218.684 59.091 L 219.033 58.500 220.433 58.500 C 221.203 58.500,221.833 58.570,221.833 58.655 M327.894 59.273 C 327.952 59.699,328.000 60.253,328.000 60.505 C 328.000 61.130,328.164 61.167,330.930 61.167 L 333.333 61.167 333.333 70.667 L 333.333 80.167 331.042 80.169 C 327.894 80.172,328.064 80.090,327.926 81.681 L 327.810 83.000 326.489 83.000 L 325.167 83.000 325.167 81.783 C 325.167 80.276,325.065 80.167,323.659 80.167 L 322.551 80.167 322.455 77.671 C 322.339 74.663,322.432 74.833,320.904 74.833 L 319.661 74.833 319.705 70.708 L 319.750 66.583 321.000 66.500 L 322.250 66.417 322.359 65.500 C 322.418 64.996,322.474 63.818,322.484 62.882 L 322.500 61.181 323.792 61.132 L 325.083 61.083 325.132 59.792 L 325.181 58.500 326.484 58.500 L 327.788 58.500 327.894 59.273 M347.553 59.854 C 347.956 60.703,348.477 61.482,348.970 61.968 C 349.777 62.764,350.330 63.478,350.332 63.726 C 350.333 63.804,350.125 63.654,349.869 63.393 C 349.614 63.131,349.166 62.790,348.872 62.634 C 348.461 62.417,348.189 62.028,347.680 60.926 C 346.937 59.317,346.907 59.293,346.582 60.042 L 346.346 60.583 346.340 59.864 C 346.333 59.163,346.558 58.495,346.798 58.505 C 346.863 58.507,347.203 59.114,347.553 59.854 M378.348 59.139 C 378.258 59.307,378.054 59.550,377.894 59.680 C 377.714 59.827,377.754 59.710,377.999 59.375 C 378.437 58.777,378.601 58.666,378.348 59.139 M256.039 60.194 C 255.862 60.592,255.408 61.233,255.031 61.619 C 254.653 62.006,254.155 62.697,253.922 63.155 L 253.500 63.989 253.487 76.453 C 253.478 85.547,253.422 89.063,253.279 89.456 C 253.127 89.875,253.094 87.109,253.131 77.051 L 253.178 64.106 253.660 63.095 C 253.925 62.538,254.188 61.894,254.246 61.663 C 254.309 61.410,254.594 61.113,254.967 60.913 C 255.309 60.730,255.729 60.310,255.912 59.968 C 256.355 59.141,256.441 59.294,256.039 60.194 M362.166 60.208 C 362.294 60.770,362.524 61.225,362.808 61.480 L 363.250 61.877 362.667 61.530 C 362.086 61.184,361.895 60.776,361.853 59.792 C 361.822 59.081,361.947 59.247,362.166 60.208 M128.808 60.841 C 128.510 61.063,128.300 61.446,128.164 62.011 C 127.919 63.033,127.765 62.985,127.922 61.937 C 128.013 61.330,128.142 61.109,128.560 60.841 C 129.230 60.412,129.383 60.411,128.808 60.841 M321.975 60.876 C 321.682 61.124,321.458 61.560,321.313 62.167 C 321.175 62.745,321.073 62.950,321.037 62.721 C 320.932 62.049,321.303 61.096,321.787 60.796 C 322.426 60.400,322.500 60.431,321.975 60.876 M170.499 61.453 C 170.318 61.735,170.313 61.734,170.404 61.445 C 170.457 61.277,170.509 61.014,170.519 60.861 C 170.537 60.611,170.546 60.612,170.614 60.870 C 170.655 61.027,170.603 61.290,170.499 61.453 M224.500 62.500 L 224.500 63.833 220.417 63.833 L 216.333 63.833 216.333 62.500 L 216.333 61.167 220.417 61.167 L 224.500 61.167 224.500 62.500 M169.540 62.499 C 169.241 62.681,168.848 63.075,168.666 63.373 C 168.484 63.672,168.334 63.814,168.334 63.689 C 168.333 63.392,169.559 62.166,169.855 62.167 C 169.981 62.168,169.839 62.317,169.540 62.499 M304.297 62.625 C 304.555 62.877,304.612 62.962,304.425 62.814 C 304.237 62.667,303.933 62.463,303.750 62.361 C 303.567 62.260,303.509 62.175,303.622 62.172 C 303.736 62.169,304.039 62.373,304.297 62.625 M165.760 62.875 L 166.250 63.417 165.708 62.927 C 165.203 62.471,165.090 62.333,165.219 62.333 C 165.248 62.333,165.491 62.577,165.760 62.875 M154.650 65.886 C 154.751 66.144,154.833 66.990,154.833 67.766 C 154.833 69.450,155.081 70.143,156.031 71.113 C 156.859 71.959,157.161 73.278,157.130 75.917 L 157.110 77.583 157.010 75.833 C 156.906 74.027,156.728 73.512,156.090 73.170 C 155.902 73.069,155.583 72.746,155.383 72.452 C 154.938 71.799,154.708 71.236,154.946 71.383 C 155.046 71.445,155.024 71.138,154.891 70.624 C 154.767 70.149,154.667 69.061,154.667 68.205 C 154.667 66.645,154.485 65.972,153.942 65.521 C 153.473 65.132,153.417 65.722,153.328 72.000 L 153.239 78.250 153.202 72.417 C 153.173 67.778,153.222 66.163,153.441 64.529 L 153.715 62.476 154.091 63.946 C 154.298 64.755,154.550 65.628,154.650 65.886 M346.458 74.708 C 346.432 76.931,346.410 75.112,346.410 70.667 C 346.410 66.221,346.432 64.402,346.458 66.625 C 346.484 68.848,346.484 72.485,346.458 74.708 M154.652 64.000 C 154.661 64.222,154.644 64.222,154.500 64.000 C 154.411 63.862,154.343 63.600,154.348 63.417 L 154.357 63.083 154.500 63.417 C 154.579 63.600,154.647 63.862,154.652 64.000 M349.667 66.334 C 349.667 69.309,349.679 69.333,351.262 69.333 L 352.333 69.333 352.333 70.657 L 352.333 71.980 351.154 72.096 C 349.677 72.242,349.667 72.264,349.667 75.261 L 349.667 77.500 348.656 77.500 C 348.100 77.500,347.500 77.578,347.322 77.673 C 347.006 77.842,347.000 77.714,347.000 70.798 L 346.999 63.750 348.333 63.804 L 349.667 63.859 349.667 66.334 M351.057 66.606 C 351.195 66.869,351.862 67.581,352.539 68.190 C 353.501 69.055,353.816 69.456,353.981 70.024 C 354.098 70.423,354.375 71.030,354.597 71.371 C 355.088 72.128,355.087 72.108,354.625 72.226 C 354.001 72.386,353.062 73.279,352.693 74.066 C 352.501 74.474,352.195 74.855,352.013 74.913 C 351.460 75.088,350.840 75.981,350.552 77.018 C 350.216 78.226,350.091 78.204,350.350 76.983 C 350.633 75.648,350.999 75.068,352.575 73.456 L 354.002 71.996 353.668 71.003 C 353.484 70.457,353.333 69.866,353.333 69.688 C 353.333 69.360,352.710 68.767,351.676 68.113 C 350.805 67.561,350.527 66.941,350.426 65.330 L 350.337 63.917 350.571 65.023 C 350.700 65.631,350.919 66.344,351.057 66.606 M222.551 64.458 C 221.434 64.487,219.559 64.487,218.385 64.458 C 217.211 64.429,218.125 64.406,220.417 64.406 C 222.708 64.405,223.669 64.429,222.551 64.458 M375.169 65.375 C 375.171 65.894,375.215 66.016,375.333 65.833 C 375.454 65.646,375.496 65.732,375.497 66.177 C 375.500 66.808,374.800 67.716,374.151 67.921 C 373.965 67.981,373.876 68.107,373.941 68.220 C 374.003 68.328,373.990 68.359,373.913 68.289 C 373.836 68.219,373.562 68.365,373.303 68.612 C 372.725 69.166,372.703 68.941,373.242 67.978 C 373.466 67.577,373.763 66.813,373.902 66.281 C 374.126 65.420,374.643 64.690,375.042 64.672 C 375.110 64.669,375.168 64.985,375.169 65.375 M189.951 65.706 C 189.911 65.914,189.877 65.783,189.875 65.417 C 189.874 65.050,189.906 64.880,189.948 65.040 C 189.990 65.199,189.991 65.499,189.951 65.706 M166.618 66.042 C 166.578 66.248,166.545 66.079,166.545 65.667 C 166.545 65.254,166.578 65.085,166.618 65.292 C 166.657 65.498,166.657 65.835,166.618 66.042 M168.003 66.839 L 167.824 67.250 167.910 66.833 C 167.957 66.604,168.009 66.154,168.026 65.833 L 168.056 65.250 168.119 65.839 C 168.154 66.163,168.102 66.613,168.003 66.839 M291.665 65.922 C 292.547 66.238,292.602 66.294,293.203 67.500 C 293.953 69.002,293.982 69.205,293.363 68.612 C 293.105 68.365,292.830 68.219,292.753 68.289 C 292.676 68.359,292.658 68.338,292.713 68.241 C 292.768 68.144,292.555 67.926,292.240 67.756 C 291.925 67.586,291.667 67.402,291.667 67.347 C 291.667 67.292,291.476 67.041,291.243 66.790 C 291.010 66.539,290.879 66.330,290.952 66.326 C 291.024 66.323,290.821 66.176,290.500 66.000 C 289.959 65.704,289.515 65.680,284.426 65.674 L 278.935 65.667 278.467 66.115 L 278.000 66.562 278.000 73.412 L 278.000 80.261 278.484 80.547 C 278.915 80.802,279.568 80.833,284.406 80.833 C 290.332 80.833,290.613 80.795,291.319 79.895 C 291.760 79.334,292.971 78.302,292.760 78.667 C 292.681 78.804,292.890 78.658,293.225 78.342 C 293.803 77.797,294.110 77.917,293.596 78.487 C 293.466 78.632,293.213 79.125,293.034 79.583 C 292.558 80.802,292.182 80.865,284.859 80.953 L 278.968 81.023 278.317 80.592 L 277.667 80.162 277.667 73.381 L 277.667 66.599 278.207 66.042 L 278.747 65.485 284.748 65.540 C 290.212 65.589,290.832 65.624,291.665 65.922 M373.500 66.301 C 373.500 66.467,373.393 66.749,373.262 66.926 C 373.052 67.213,373.047 67.178,373.220 66.625 C 373.437 65.929,373.500 65.856,373.500 66.301 M125.958 72.958 C 125.930 74.219,125.906 73.188,125.906 70.667 C 125.906 68.146,125.930 67.115,125.958 68.375 C 125.986 69.635,125.986 71.698,125.958 72.958 M293.417 66.667 C 293.559 66.942,293.638 67.167,293.592 67.167 C 293.546 67.167,293.392 66.942,293.250 66.667 C 293.108 66.392,293.029 66.167,293.075 66.167 C 293.121 66.167,293.274 66.392,293.417 66.667 M319.125 72.875 C 319.096 74.090,319.073 73.096,319.073 70.667 C 319.073 68.237,319.096 67.244,319.125 68.458 C 319.153 69.673,319.153 71.660,319.125 72.875 M289.876 67.771 C 289.979 69.051,290.040 69.109,291.432 69.258 L 292.458 69.368 292.541 70.536 C 292.641 71.929,292.716 71.994,294.208 71.997 L 295.333 72.000 295.333 73.417 L 295.333 74.833 294.093 74.833 C 292.648 74.833,292.646 74.836,292.539 76.335 L 292.458 77.458 291.380 77.544 C 290.041 77.652,289.949 77.746,289.863 79.084 L 289.795 80.167 284.314 80.167 L 278.833 80.167 278.833 73.417 L 278.833 66.667 284.311 66.667 L 289.788 66.667 289.876 67.771 M372.399 70.430 C 372.454 70.575,372.501 70.857,372.503 71.055 C 372.504 71.326,372.542 71.359,372.651 71.187 C 372.749 71.031,372.816 71.201,372.857 71.713 C 372.890 72.128,372.862 72.434,372.794 72.392 C 372.727 72.351,372.718 72.550,372.775 72.836 L 372.879 73.354 372.231 72.930 C 371.150 72.220,371.133 72.194,371.258 71.451 C 371.412 70.542,372.178 69.856,372.399 70.430 M103.333 70.884 C 103.038 71.023,100.376 71.105,94.214 71.165 C 86.150 71.244,85.490 71.272,85.214 71.547 C 84.939 71.823,84.910 72.484,84.832 80.547 C 84.781 85.734,84.680 89.398,84.582 89.616 C 84.471 89.861,84.433 87.030,84.467 81.032 L 84.517 72.083 85.124 71.460 L 85.731 70.836 94.241 70.792 C 98.921 70.767,102.975 70.734,103.250 70.717 L 103.750 70.688 103.333 70.884 M296.330 73.300 C 296.333 74.723,296.007 76.062,295.725 75.781 C 295.680 75.735,295.760 75.469,295.904 75.190 C 296.251 74.521,296.254 72.426,295.910 71.562 L 295.652 70.917 295.989 71.333 C 296.272 71.684,296.327 71.997,296.330 73.300 M240.817 74.375 C 240.807 75.206,240.754 75.585,240.684 75.333 L 240.568 74.917 232.743 74.873 C 223.472 74.821,224.500 74.458,224.500 77.782 L 224.500 80.167 220.417 80.167 L 216.333 80.167 216.331 77.708 C 216.328 74.752,216.385 74.864,214.828 74.791 C 214.144 74.759,219.532 74.718,226.803 74.700 C 241.247 74.664,240.667 74.707,240.667 73.661 C 240.667 73.297,240.704 73.000,240.750 73.000 C 240.796 73.000,240.826 73.619,240.817 74.375 M178.988 76.184 C 179.002 78.005,179.301 78.688,180.308 79.194 C 181.116 79.600,181.187 79.745,180.423 79.428 C 179.563 79.071,179.216 78.745,179.017 78.105 C 178.832 77.508,178.680 73.831,178.859 74.285 C 178.924 74.449,178.982 75.303,178.988 76.184 M199.166 75.968 C 199.166 77.671,198.885 78.388,198.000 78.942 C 197.679 79.143,197.236 79.482,197.016 79.695 L 196.616 80.083 196.927 79.541 C 197.099 79.243,197.368 78.959,197.526 78.908 C 198.441 78.618,198.833 77.741,198.833 75.984 C 198.833 74.913,198.893 74.351,199.000 74.417 C 199.092 74.473,199.167 75.171,199.166 75.968 M177.405 78.138 C 177.133 78.850,176.380 79.501,175.833 79.497 C 175.696 79.495,175.883 79.326,176.250 79.120 C 177.215 78.577,177.493 77.903,177.534 76.000 L 177.569 74.417 177.625 75.916 C 177.666 77.020,177.608 77.605,177.405 78.138 M214.187 75.865 C 215.081 76.367,215.454 77.137,215.596 78.767 C 215.659 79.491,215.790 80.196,215.888 80.333 C 216.045 80.556,216.037 80.556,215.809 80.333 C 215.668 80.196,215.469 79.606,215.366 79.023 C 215.132 77.689,214.702 76.844,214.042 76.417 C 213.758 76.233,213.491 75.971,213.449 75.833 C 213.406 75.696,213.319 75.433,213.256 75.250 C 213.156 74.960,213.165 74.953,213.324 75.200 C 213.425 75.355,213.813 75.655,214.187 75.865 M236.397 75.888 C 236.930 76.049,236.261 76.083,232.619 76.083 C 230.186 76.083,228.211 76.066,228.232 76.046 C 228.605 75.673,235.260 75.544,236.397 75.888 M158.465 79.124 C 159.565 79.619,160.004 80.138,159.972 80.906 L 159.944 81.583 159.877 80.917 C 159.808 80.229,159.291 79.500,158.872 79.500 C 158.232 79.500,157.154 78.425,157.174 77.808 C 157.178 77.684,157.331 77.867,157.514 78.214 C 157.727 78.617,158.071 78.946,158.465 79.124 M202.572 79.612 C 202.723 80.211,203.078 81.200,203.361 81.809 C 203.751 82.648,203.904 83.264,203.990 84.349 L 204.105 85.782 205.999 87.665 C 208.026 89.681,208.286 89.824,209.917 89.826 C 210.746 89.828,210.756 89.834,212.089 91.247 L 213.427 92.667 220.299 92.667 C 228.053 92.667,227.952 92.682,229.221 91.342 C 229.667 90.872,230.147 90.591,230.960 90.324 C 232.666 89.763,232.876 89.620,234.763 87.733 C 236.727 85.769,236.833 85.581,236.833 84.073 C 236.833 83.027,237.504 81.816,238.250 81.516 C 238.878 81.263,239.485 80.289,239.533 79.456 L 239.583 78.583 239.778 79.408 C 240.030 80.472,239.668 81.277,238.722 81.756 C 237.314 82.469,237.167 82.719,237.166 84.406 C 237.165 86.184,236.893 86.793,235.861 87.319 C 235.177 87.668,234.612 88.266,234.128 89.153 C 233.927 89.523,233.550 89.810,232.878 90.107 C 232.349 90.341,231.862 90.619,231.794 90.725 C 231.727 90.830,231.671 90.849,231.669 90.767 C 231.668 90.684,231.449 90.917,231.183 91.285 C 230.639 92.035,229.003 93.170,229.407 92.516 C 229.458 92.434,229.150 92.471,228.723 92.600 C 228.108 92.785,226.416 92.833,220.563 92.833 L 213.178 92.833 212.597 92.323 C 212.277 92.042,211.966 91.649,211.906 91.448 C 211.606 90.455,211.049 90.167,209.427 90.166 C 207.693 90.165,207.040 89.891,206.572 88.966 C 206.185 88.199,205.686 87.687,204.972 87.321 C 203.877 86.759,203.602 86.171,203.646 84.484 C 203.689 82.788,203.413 82.048,202.311 80.905 C 201.667 80.238,201.658 80.212,201.766 79.294 C 201.911 78.064,202.213 78.183,202.572 79.612 M321.487 79.849 C 321.506 80.239,321.976 80.602,322.913 80.950 C 323.750 81.260,324.508 82.075,324.493 82.650 C 324.490 82.797,324.388 82.692,324.266 82.417 C 323.978 81.763,323.620 81.467,322.458 80.924 C 321.371 80.415,321.194 80.174,321.084 79.048 L 321.006 78.250 321.240 78.917 C 321.369 79.283,321.480 79.703,321.487 79.849 M128.628 80.376 C 128.771 80.538,129.184 80.758,129.546 80.867 C 130.329 81.101,131.082 81.804,131.243 82.451 C 131.638 84.035,135.009 84.002,135.766 82.407 C 136.209 81.472,136.841 81.139,138.562 80.933 C 139.399 80.832,140.196 80.679,140.333 80.593 C 140.543 80.462,140.549 80.478,140.373 80.696 C 140.258 80.838,139.808 81.003,139.373 81.062 C 137.913 81.261,137.030 81.652,136.456 82.356 C 135.620 83.379,134.925 83.667,133.282 83.667 C 131.714 83.667,131.601 83.601,130.951 82.312 C 130.650 81.716,130.388 81.485,129.507 81.043 C 128.116 80.344,128.020 80.235,127.922 79.246 L 127.839 78.417 128.104 79.250 C 128.250 79.708,128.486 80.215,128.628 80.376 M225.765 79.731 C 225.696 80.098,225.497 80.359,225.124 80.574 L 224.583 80.886 225.015 80.476 C 225.280 80.224,225.499 79.779,225.581 79.324 C 225.661 78.882,225.745 78.708,225.789 78.892 C 225.831 79.061,225.819 79.439,225.765 79.731 M293.521 79.960 C 293.435 80.122,293.193 80.403,292.985 80.585 C 292.705 80.829,292.734 80.752,293.094 80.292 C 293.627 79.611,293.766 79.503,293.521 79.960 M362.333 81.708 C 362.239 83.642,362.097 83.962,361.093 84.511 C 360.721 84.715,360.199 85.076,359.933 85.315 C 359.466 85.734,359.469 85.722,360.016 84.980 C 360.328 84.557,360.793 84.090,361.049 83.942 C 361.688 83.574,362.000 82.725,362.000 81.353 C 362.000 80.582,362.070 80.166,362.208 80.110 C 362.323 80.064,362.417 80.020,362.417 80.013 C 362.417 80.005,362.379 80.768,362.333 81.708 M196.615 80.958 C 196.573 81.119,196.539 80.987,196.539 80.667 C 196.539 80.346,196.573 80.215,196.615 80.375 C 196.657 80.535,196.657 80.798,196.615 80.958 M174.786 81.456 C 174.748 81.709,174.716 81.542,174.714 81.083 C 174.713 80.625,174.744 80.418,174.784 80.623 C 174.824 80.828,174.825 81.203,174.786 81.456 M333.494 80.720 C 333.360 80.842,332.762 81.034,332.167 81.148 C 330.787 81.411,330.004 81.808,329.583 82.458 C 328.812 83.648,325.516 84.215,324.734 83.292 C 324.417 82.917,324.417 82.917,324.763 83.208 C 325.774 84.060,328.398 83.513,329.004 82.325 C 329.454 81.443,330.261 81.058,331.969 80.909 C 332.723 80.844,333.381 80.724,333.430 80.645 C 333.479 80.565,333.569 80.500,333.629 80.500 C 333.689 80.500,333.628 80.599,333.494 80.720 M218.644 81.562 C 219.059 81.938,221.858 81.955,222.166 81.584 C 222.378 81.329,223.849 80.824,224.322 80.844 C 224.466 80.851,224.271 80.953,223.890 81.072 C 222.947 81.368,222.252 81.891,222.002 82.496 C 221.675 83.285,219.158 83.285,218.832 82.496 C 218.587 81.906,218.015 81.467,217.083 81.155 C 215.947 80.775,216.044 80.654,217.224 80.981 C 217.840 81.152,218.479 81.414,218.644 81.562 M347.396 81.353 L 347.951 80.815 347.434 81.883 C 346.793 83.208,346.328 83.087,346.340 81.599 L 346.346 80.750 346.594 81.320 L 346.841 81.891 347.396 81.353 M196.448 82.292 C 196.406 82.452,196.372 82.321,196.372 82.000 C 196.372 81.679,196.406 81.548,196.448 81.708 C 196.490 81.869,196.490 82.131,196.448 82.292 M309.243 82.223 C 309.546 82.739,309.658 83.156,309.638 83.681 L 309.608 84.417 309.543 83.677 C 309.339 81.363,305.564 81.181,305.477 83.481 C 305.461 83.901,305.432 83.965,305.380 83.691 C 305.118 82.311,305.900 81.500,307.491 81.500 L 308.819 81.500 309.243 82.223 M181.618 82.706 C 181.578 82.914,181.544 82.783,181.542 82.417 C 181.540 82.050,181.573 81.880,181.615 82.040 C 181.656 82.199,181.658 82.499,181.618 82.706 M380.057 83.987 C 381.242 84.561,381.569 85.343,381.447 87.314 C 381.286 89.936,381.072 90.179,381.048 87.766 C 381.025 85.525,380.743 84.720,379.875 84.422 C 379.715 84.367,379.340 83.990,379.042 83.585 C 378.399 82.710,378.323 82.431,378.921 83.141 C 379.152 83.416,379.663 83.797,380.057 83.987 M116.451 84.208 C 116.411 84.415,116.379 84.246,116.379 83.833 C 116.379 83.421,116.411 83.252,116.451 83.458 C 116.491 83.665,116.491 84.002,116.451 84.208 M196.015 83.639 C 195.925 83.807,195.721 84.050,195.561 84.180 C 195.381 84.327,195.421 84.210,195.666 83.875 C 196.104 83.277,196.268 83.166,196.015 83.639 M173.987 83.933 C 173.765 84.170,173.358 84.471,173.083 84.602 C 172.801 84.735,172.722 84.746,172.902 84.627 C 173.078 84.511,173.453 84.213,173.736 83.963 C 174.389 83.387,174.511 83.373,173.987 83.933 M365.458 85.385 C 365.848 85.644,366.167 85.937,366.167 86.037 C 366.167 86.466,367.104 87.389,367.959 87.803 C 368.468 88.049,368.942 88.362,369.012 88.500 C 369.534 89.524,370.000 90.510,370.000 90.591 C 370.000 90.900,367.840 89.098,367.199 88.254 C 366.779 87.702,366.027 86.803,365.527 86.256 C 364.665 85.313,364.012 84.206,364.004 83.673 C 364.002 83.539,364.169 83.763,364.375 84.172 C 364.601 84.620,365.031 85.101,365.458 85.385 M150.917 86.823 L 149.817 87.917 150.368 86.994 C 150.671 86.486,151.021 85.661,151.147 85.161 C 151.534 83.614,151.905 83.396,151.967 84.679 L 152.018 85.729 150.917 86.823 M305.282 85.125 C 305.240 85.285,305.205 85.154,305.205 84.833 C 305.205 84.512,305.240 84.381,305.282 84.542 C 305.323 84.702,305.323 84.965,305.282 85.125 M162.457 88.119 C 162.424 88.649,162.396 88.258,162.396 87.250 C 162.395 86.242,162.422 85.808,162.456 86.286 C 162.490 86.763,162.490 87.588,162.457 88.119 M194.123 87.869 C 194.089 88.354,194.061 88.000,194.061 87.083 C 194.060 86.167,194.088 85.770,194.122 86.203 C 194.156 86.635,194.157 87.385,194.123 87.869 M172.290 88.286 C 172.257 88.816,172.229 88.425,172.229 87.417 C 172.229 86.408,172.256 85.974,172.289 86.452 C 172.323 86.930,172.323 87.755,172.290 88.286 M344.646 87.583 C 344.639 87.767,344.556 87.629,344.463 87.278 L 344.294 86.640 343.703 87.195 L 343.111 87.750 343.478 87.216 C 343.680 86.922,343.932 86.434,344.037 86.132 L 344.228 85.584 344.444 86.417 C 344.563 86.875,344.654 87.400,344.646 87.583 M117.612 86.939 C 117.895 87.168,117.891 87.172,117.545 87.005 C 117.341 86.907,117.093 86.659,116.995 86.455 C 116.828 86.109,116.832 86.105,117.061 86.388 C 117.196 86.556,117.444 86.804,117.612 86.939 M310.594 86.708 L 311.083 87.250 310.542 86.760 C 310.037 86.304,309.923 86.167,310.052 86.167 C 310.081 86.167,310.325 86.410,310.594 86.708 M304.569 86.682 C 304.396 86.874,304.103 87.107,303.919 87.200 C 303.734 87.294,303.846 87.140,304.167 86.858 C 304.847 86.262,305.017 86.187,304.569 86.682 M120.010 88.769 C 120.302 89.314,120.977 89.705,122.583 90.262 C 123.592 90.611,124.124 90.916,124.767 91.514 C 126.068 92.725,125.934 92.710,134.762 92.643 C 143.408 92.577,143.377 92.581,143.986 91.444 C 144.411 90.650,145.567 89.858,146.480 89.737 C 147.591 89.589,147.579 89.753,146.460 89.993 C 145.592 90.179,144.667 90.841,144.667 91.275 C 144.667 92.070,142.952 93.118,141.947 92.937 C 141.656 92.885,137.648 92.832,133.043 92.820 C 127.160 92.805,124.701 92.746,124.778 92.621 C 124.849 92.507,124.781 92.484,124.589 92.558 C 124.193 92.710,122.975 91.993,122.674 91.430 C 122.547 91.194,122.377 91.000,122.295 91.000 C 122.214 91.000,122.201 90.912,122.268 90.805 C 122.349 90.673,122.296 90.645,122.102 90.720 C 121.945 90.780,121.858 90.762,121.909 90.679 C 121.961 90.596,121.631 90.404,121.176 90.253 C 120.410 89.999,119.333 89.072,119.333 88.667 C 119.333 88.581,119.090 88.231,118.792 87.887 L 118.250 87.263 119.020 87.811 C 119.444 88.113,119.890 88.544,120.010 88.769 M313.107 88.646 C 313.947 89.494,314.294 89.709,315.583 90.183 C 316.718 90.600,317.290 90.925,317.933 91.519 C 319.238 92.725,319.105 92.710,327.929 92.637 C 336.528 92.566,336.484 92.571,337.132 91.525 C 337.726 90.566,338.714 89.861,339.634 89.739 C 340.753 89.590,340.748 89.742,339.625 90.004 C 338.605 90.242,338.131 90.623,337.668 91.580 C 336.991 92.978,337.322 92.939,327.250 92.809 C 317.928 92.689,317.456 92.669,316.898 92.369 C 316.502 92.156,315.500 91.065,315.500 90.847 C 315.500 90.769,315.069 90.535,314.542 90.327 C 313.499 89.915,312.730 89.306,312.567 88.762 C 312.510 88.572,312.228 88.164,311.940 87.854 C 311.032 86.877,312.023 87.550,313.107 88.646 M302.889 88.042 C 302.705 88.248,302.389 88.693,302.187 89.030 C 301.950 89.426,301.543 89.774,301.035 90.014 C 300.603 90.218,300.110 90.456,299.938 90.543 C 299.224 90.903,299.889 90.334,300.748 89.849 C 301.309 89.532,301.823 89.079,302.077 88.677 C 302.429 88.119,302.888 87.691,303.154 87.672 C 303.193 87.669,303.074 87.835,302.889 88.042 M369.682 88.528 C 369.935 89.001,369.771 88.890,369.333 88.292 C 369.087 87.956,369.047 87.840,369.227 87.986 C 369.387 88.116,369.592 88.360,369.682 88.528 M344.782 88.958 C 344.740 89.119,344.705 88.987,344.705 88.667 C 344.705 88.346,344.740 88.215,344.782 88.375 C 344.823 88.535,344.823 88.798,344.782 88.958 M242.230 91.128 C 242.908 92.440,245.199 92.926,249.188 92.606 C 250.002 92.540,250.264 92.557,249.963 92.655 C 248.864 93.012,243.226 92.942,242.721 92.566 C 241.932 91.978,241.667 91.336,241.581 89.812 L 241.503 88.417 241.738 89.523 C 241.867 90.131,242.088 90.854,242.230 91.128 M266.586 90.779 C 267.336 92.743,267.093 92.718,284.539 92.638 C 291.207 92.608,296.461 92.637,296.216 92.702 C 295.004 93.026,267.628 92.870,267.181 92.537 C 266.431 91.977,266.165 91.317,266.085 89.812 C 266.022 88.612,266.033 88.533,266.164 89.245 C 266.248 89.701,266.437 90.391,266.586 90.779 M183.848 90.293 C 184.456 92.137,185.612 92.658,189.100 92.663 C 192.603 92.668,193.222 92.295,193.787 89.836 L 193.999 88.917 193.905 89.833 C 193.776 91.093,193.304 92.087,192.636 92.502 C 192.107 92.830,186.390 92.907,184.458 92.612 C 184.206 92.573,183.925 92.532,183.834 92.521 C 183.301 92.454,182.333 91.271,182.336 90.689 C 182.338 90.237,182.379 90.147,182.500 90.333 C 182.617 90.514,182.662 90.362,182.664 89.787 L 182.667 88.990 183.163 89.357 C 183.436 89.559,183.744 89.980,183.848 90.293 M163.157 91.148 C 163.881 92.566,164.158 92.667,167.340 92.667 L 170.155 92.667 170.751 92.144 C 171.443 91.536,171.645 91.197,171.929 90.168 C 172.044 89.755,172.144 89.572,172.152 89.761 C 172.186 90.550,171.656 91.808,171.076 92.318 L 170.488 92.833 167.395 92.833 C 163.482 92.833,162.879 92.487,162.603 90.079 C 162.515 89.309,162.520 89.295,162.669 89.878 C 162.757 90.223,162.977 90.795,163.157 91.148 M356.593 89.792 C 356.533 90.044,356.442 90.391,356.391 90.563 C 356.327 90.777,356.360 90.836,356.496 90.753 C 357.016 90.431,356.073 91.732,355.469 92.170 C 354.797 92.657,354.389 92.815,354.573 92.516 C 354.624 92.434,354.317 92.471,353.890 92.600 C 353.337 92.766,352.164 92.833,349.813 92.833 L 346.512 92.833 345.924 92.318 C 345.532 91.973,345.253 91.521,345.085 90.954 C 344.714 89.706,344.797 89.242,345.176 90.439 C 345.415 91.192,345.676 91.621,346.167 92.064 L 346.834 92.667 349.615 92.667 C 352.689 92.667,353.392 92.490,354.219 91.506 C 354.436 91.249,354.923 90.842,355.302 90.603 C 355.681 90.364,356.115 89.980,356.265 89.751 C 356.620 89.208,356.729 89.222,356.593 89.792 M377.869 92.697 C 377.712 92.759,376.646 92.810,375.500 92.810 C 374.354 92.810,373.288 92.759,373.131 92.697 C 372.974 92.634,374.040 92.583,375.500 92.583 C 376.960 92.583,378.026 92.634,377.869 92.697 M55.833 106.583 C 55.833 107.192,55.778 107.331,55.542 107.320 C 55.367 107.312,55.334 107.273,55.458 107.223 C 55.575 107.176,55.667 106.852,55.667 106.486 C 55.667 106.127,55.704 105.833,55.750 105.833 C 55.796 105.833,55.833 106.171,55.833 106.583 " stroke="none" fill="#020004" fill-rule="evenodd"></path><path id="path1" d="M74.050 32.493 C 72.644 33.350,72.673 32.725,72.673 62.500 C 72.673 92.285,72.637 91.510,74.053 92.565 C 74.558 92.941,80.194 93.012,81.292 92.656 C 81.599 92.556,81.344 92.540,80.521 92.606 C 79.845 92.660,78.277 92.650,77.036 92.584 L 74.781 92.463 74.140 91.857 C 72.759 90.550,72.833 92.211,72.836 62.598 C 72.839 34.899,72.833 35.135,73.620 33.791 C 74.387 32.483,73.080 32.583,89.285 32.583 C 100.580 32.583,103.572 32.541,103.064 32.388 C 101.773 31.998,74.701 32.096,74.050 32.493 M267.307 32.421 C 266.525 32.845,266.167 33.653,266.079 35.193 L 265.999 36.583 266.261 35.417 C 266.954 32.331,265.632 32.583,281.118 32.583 C 291.393 32.583,294.073 32.541,293.564 32.388 C 292.510 32.070,267.897 32.100,267.307 32.421 M107.828 34.865 C 108.531 35.162,108.826 35.402,109.117 35.917 C 109.325 36.283,109.496 36.458,109.497 36.304 C 109.501 35.927,108.706 35.007,108.216 34.820 C 107.306 34.474,106.989 34.511,107.828 34.865 M298.583 34.899 C 299.393 35.177,299.852 35.443,300.083 35.767 C 300.491 36.339,300.980 36.816,301.581 37.229 C 301.831 37.401,302.176 37.851,302.347 38.229 C 302.713 39.034,302.780 38.760,302.425 37.911 C 301.877 36.599,300.333 35.139,299.184 34.847 C 297.812 34.498,297.495 34.525,298.583 34.899 M265.908 42.167 C 265.908 45.237,265.931 46.494,265.958 44.958 C 265.986 43.423,265.986 40.910,265.958 39.375 C 265.931 37.840,265.908 39.096,265.908 42.167 M112.039 40.500 C 112.039 40.821,112.073 40.952,112.115 40.792 C 112.157 40.631,112.157 40.369,112.115 40.208 C 112.073 40.048,112.039 40.179,112.039 40.500 M112.192 41.711 C 112.163 42.241,112.781 43.287,113.204 43.426 C 113.363 43.478,113.719 43.795,113.996 44.131 L 114.500 44.743 114.480 50.496 C 114.468 53.661,114.412 57.038,114.355 58.000 L 114.250 59.750 113.540 59.801 C 112.690 59.863,112.343 60.400,112.013 62.167 C 111.753 63.558,111.269 64.568,110.679 64.948 C 110.252 65.224,109.555 65.996,108.524 67.336 C 108.308 67.616,107.769 68.029,107.327 68.253 C 106.254 68.797,106.099 69.093,107.140 68.611 C 108.378 68.038,108.799 67.717,109.099 67.123 C 109.440 66.448,110.160 65.667,110.442 65.667 C 111.338 65.667,112.057 64.305,112.250 62.245 C 112.322 61.473,112.470 60.933,112.682 60.662 L 113.004 60.250 113.419 60.718 L 113.833 61.185 113.834 70.801 C 113.835 81.664,113.770 81.121,115.155 81.828 C 115.523 82.015,115.935 82.374,116.072 82.626 C 116.411 83.250,116.401 82.947,116.061 82.290 C 115.911 82.001,115.443 81.450,115.019 81.067 L 114.250 80.371 114.196 71.977 C 114.166 67.361,114.192 62.740,114.254 61.708 L 114.366 59.833 115.013 59.833 C 115.608 59.833,115.688 59.777,116.010 59.125 L 116.359 58.417 115.971 58.883 C 114.898 60.173,114.714 58.900,114.684 50.000 C 114.663 43.933,114.647 43.845,113.457 43.280 C 112.792 42.965,112.393 42.437,112.289 41.735 L 112.217 41.250 112.192 41.711 M303.180 42.558 C 303.324 42.717,303.698 42.975,304.010 43.132 C 305.307 43.783,305.354 44.002,305.299 49.106 L 305.250 53.640 304.833 54.086 C 304.604 54.332,304.141 54.674,303.803 54.847 C 303.465 55.020,303.147 55.230,303.096 55.313 C 302.867 55.683,304.759 54.533,305.069 54.113 C 305.398 53.668,305.419 53.405,305.462 49.113 C 305.514 43.898,305.473 43.697,304.199 43.055 C 303.805 42.856,303.355 42.597,303.199 42.480 C 302.940 42.285,302.938 42.292,303.180 42.558 M85.119 44.270 L 84.500 44.889 84.500 51.681 L 84.500 58.473 85.061 58.820 C 86.044 59.427,98.784 59.272,99.411 58.645 C 99.596 58.460,100.640 56.251,100.573 56.184 C 100.532 56.143,100.325 56.273,100.112 56.473 C 99.899 56.673,99.663 56.779,99.586 56.710 C 99.509 56.640,99.497 56.672,99.559 56.780 C 99.624 56.893,99.535 57.019,99.349 57.078 C 99.171 57.135,98.750 57.486,98.414 57.859 C 97.358 59.027,97.542 58.998,91.245 58.999 C 86.381 59.000,85.521 58.963,85.204 58.741 L 84.833 58.481 84.833 51.603 L 84.833 44.725 85.219 44.362 C 86.038 43.593,97.833 43.881,97.833 44.669 C 97.833 44.884,102.330 49.422,102.340 49.218 C 102.344 49.144,102.491 49.346,102.667 49.667 C 103.067 50.398,103.119 52.687,102.750 53.333 C 102.402 53.941,102.455 54.151,102.833 53.667 C 103.803 52.427,102.979 47.759,101.684 47.157 C 100.663 46.683,100.295 46.320,99.831 45.328 C 99.162 43.900,98.549 43.781,91.494 43.709 L 85.738 43.651 85.119 44.270 M278.284 44.299 L 277.667 44.931 277.667 48.938 L 277.667 52.944 278.278 53.556 L 278.889 54.167 284.403 54.167 C 292.092 54.168,292.463 54.064,293.222 51.697 C 293.846 49.751,293.835 48.096,293.187 46.116 C 292.423 43.785,291.994 43.667,284.334 43.667 L 278.901 43.667 278.284 44.299 M290.413 44.195 C 290.649 44.303,291.000 44.647,291.194 44.961 C 291.388 45.275,291.834 45.740,292.185 45.994 C 292.535 46.248,292.775 46.503,292.717 46.561 C 292.659 46.619,292.687 46.667,292.779 46.667 C 293.410 46.667,293.592 50.326,292.994 50.969 C 292.807 51.169,292.705 51.333,292.769 51.333 C 292.832 51.333,292.576 51.556,292.200 51.828 C 291.538 52.308,291.055 52.940,291.135 53.221 C 291.157 53.296,291.098 53.311,291.004 53.253 C 290.910 53.194,290.833 53.214,290.833 53.297 C 290.833 53.750,289.835 53.833,284.378 53.833 C 277.214 53.833,278.000 54.430,278.000 48.994 L 278.000 44.879 278.439 44.439 L 278.879 44.000 284.432 44.000 C 288.321 44.000,290.113 44.059,290.413 44.195 M293.116 44.748 C 293.268 45.068,293.423 45.300,293.459 45.263 C 293.535 45.187,293.029 44.167,292.915 44.167 C 292.873 44.167,292.963 44.428,293.116 44.748 M100.833 45.917 C 101.144 46.237,101.436 46.500,101.482 46.500 C 101.528 46.500,101.311 46.237,101.000 45.917 C 100.689 45.596,100.397 45.333,100.351 45.333 C 100.305 45.333,100.522 45.596,100.833 45.917 M250.758 49.155 C 250.697 49.253,250.424 49.333,250.152 49.333 L 249.657 49.333 250.023 49.829 C 250.524 50.506,251.350 50.647,253.333 50.395 C 256.521 49.990,257.288 49.476,254.986 49.289 C 251.327 48.991,250.867 48.977,250.758 49.155 M370.682 49.493 C 369.248 51.027,368.263 52.000,368.147 52.000 C 367.976 52.000,366.990 53.434,367.091 53.535 C 367.134 53.578,367.018 53.749,366.834 53.916 C 366.650 54.082,366.500 54.166,366.500 54.101 C 366.500 53.782,365.032 55.051,364.684 55.671 C 364.464 56.063,364.381 56.324,364.499 56.250 C 364.715 56.117,364.705 56.229,364.398 57.417 C 364.344 57.626,364.441 57.556,364.660 57.228 C 364.851 56.941,365.305 56.509,365.667 56.269 C 366.030 56.029,366.471 55.552,366.647 55.208 C 367.020 54.481,367.529 53.984,368.302 53.593 C 368.667 53.409,368.955 53.077,369.155 52.610 C 369.643 51.473,371.336 50.333,372.538 50.333 C 372.618 50.333,372.861 50.127,373.079 49.875 L 373.474 49.417 372.862 49.282 C 371.256 48.929,371.205 48.934,370.682 49.493 M378.750 49.167 C 378.693 49.258,378.426 49.333,378.157 49.333 C 377.887 49.333,377.669 49.390,377.672 49.458 C 377.683 49.699,378.271 50.291,378.604 50.397 C 381.433 51.295,382.235 55.434,379.910 57.135 C 379.547 57.401,379.101 57.798,378.919 58.017 C 378.621 58.377,378.637 58.374,379.086 57.977 C 379.360 57.735,379.747 57.488,379.948 57.427 C 380.149 57.367,380.549 57.048,380.839 56.719 L 381.364 56.120 381.296 53.852 C 381.258 52.604,381.163 51.440,381.085 51.264 C 380.985 51.038,380.999 50.980,381.136 51.065 C 381.262 51.143,381.295 51.094,381.231 50.926 C 381.176 50.785,381.072 50.706,380.998 50.751 C 380.925 50.797,380.901 50.695,380.945 50.526 C 381.147 49.752,379.152 48.516,378.750 49.167 M140.996 49.578 C 141.107 49.713,141.847 50.021,142.640 50.263 C 143.432 50.504,144.438 50.883,144.875 51.104 C 145.311 51.326,146.025 51.544,146.459 51.590 C 147.033 51.650,147.158 51.629,146.917 51.515 C 146.733 51.428,146.433 51.351,146.250 51.343 C 145.663 51.320,144.235 50.557,143.614 49.936 C 142.955 49.277,140.463 48.936,140.996 49.578 M242.779 49.990 C 242.011 50.840,241.698 51.461,241.585 52.358 L 241.494 53.083 241.731 52.371 C 242.187 50.997,242.932 50.351,244.372 50.081 C 245.642 49.842,245.703 49.333,244.462 49.333 C 243.405 49.333,243.354 49.353,242.779 49.990 M334.181 49.586 C 334.319 49.724,334.945 49.984,335.571 50.163 C 336.198 50.342,337.204 50.720,337.808 51.003 C 338.412 51.285,339.246 51.549,339.661 51.589 L 340.417 51.661 339.583 51.412 C 338.287 51.024,337.088 50.368,336.688 49.827 C 336.343 49.360,336.260 49.333,335.126 49.333 C 334.057 49.333,333.956 49.360,334.181 49.586 M211.333 50.917 C 211.059 51.074,210.399 51.157,209.400 51.161 C 207.499 51.168,206.964 51.465,206.384 52.833 L 205.996 53.750 206.886 52.770 C 207.837 51.722,208.299 51.544,210.167 51.504 C 210.700 51.493,211.061 51.370,211.417 51.078 C 211.978 50.618,211.951 50.564,211.333 50.917 M371.375 51.082 C 371.077 51.211,370.833 51.355,370.833 51.400 C 370.833 51.480,372.012 51.033,372.153 50.899 C 372.298 50.761,371.895 50.856,371.375 51.082 M251.542 51.115 C 251.702 51.157,251.965 51.157,252.125 51.115 C 252.285 51.073,252.154 51.039,251.833 51.039 C 251.512 51.039,251.381 51.073,251.542 51.115 M120.316 51.544 C 120.005 51.751,119.613 52.200,119.446 52.542 C 119.141 53.163,118.750 53.533,117.676 54.218 C 116.794 54.780,116.504 55.426,116.415 57.022 L 116.336 58.417 116.572 57.305 C 116.892 55.795,116.934 55.732,119.076 53.580 C 120.638 52.011,121.097 51.646,121.771 51.439 L 122.583 51.190 121.733 51.178 C 121.114 51.170,120.729 51.269,120.316 51.544 M232.207 51.527 C 232.816 51.739,233.300 52.038,233.540 52.351 C 234.817 54.016,235.062 54.120,234.394 52.716 C 233.872 51.618,233.180 51.162,232.064 51.180 L 231.250 51.193 232.207 51.527 M313.500 51.542 C 313.198 51.748,312.815 52.171,312.650 52.483 C 312.287 53.165,311.512 54.000,311.241 54.000 C 310.401 54.000,309.704 55.295,309.561 57.125 C 309.443 58.638,309.234 59.041,308.324 59.505 C 307.119 60.119,307.001 60.502,307.001 63.799 C 307.000 66.673,306.999 66.683,306.571 67.111 L 306.142 67.539 305.869 67.149 C 305.719 66.935,305.546 66.457,305.485 66.088 C 305.377 65.427,305.375 65.425,305.354 65.980 C 305.331 66.600,305.897 67.667,306.249 67.667 C 307.003 67.667,307.333 66.722,307.343 64.529 C 307.358 61.380,307.470 60.900,308.381 60.089 C 309.245 59.320,309.572 58.733,309.734 57.667 C 309.998 55.915,310.107 55.733,312.115 53.715 C 313.706 52.115,314.199 51.719,314.899 51.480 L 315.750 51.190 314.900 51.178 C 314.278 51.170,313.902 51.267,313.500 51.542 M293.339 52.656 C 293.128 53.050,293.118 53.216,293.313 53.096 C 293.460 53.005,293.690 52.333,293.574 52.333 C 293.540 52.333,293.434 52.478,293.339 52.656 M369.709 52.542 C 369.473 52.839,369.142 53.500,369.228 53.500 C 369.268 53.500,369.455 53.237,369.645 52.917 C 369.989 52.334,370.020 52.149,369.709 52.542 M357.399 53.766 C 357.644 54.142,358.032 54.550,358.261 54.673 C 358.490 54.795,358.823 55.130,359.000 55.417 C 359.178 55.704,359.481 56.082,359.675 56.258 L 360.028 56.577 359.739 55.830 C 359.396 54.947,358.936 54.396,358.250 54.048 C 357.975 53.908,357.571 53.634,357.352 53.439 C 356.966 53.095,356.968 53.106,357.399 53.766 M149.667 53.367 C 149.667 53.422,149.892 53.895,150.168 54.419 C 150.443 54.943,150.716 55.664,150.773 56.023 C 150.830 56.381,150.931 56.707,150.997 56.748 C 151.140 56.836,151.565 53.509,151.428 53.373 C 151.376 53.320,151.333 53.397,151.333 53.544 C 151.333 54.257,150.816 54.382,150.227 53.811 C 149.919 53.512,149.667 53.313,149.667 53.367 M342.848 53.418 C 342.887 53.509,343.114 53.958,343.353 54.417 C 343.592 54.875,343.888 55.663,344.011 56.167 L 344.234 57.083 344.438 55.750 C 344.550 55.017,344.640 54.154,344.639 53.833 L 344.637 53.250 344.479 53.798 C 344.308 54.388,344.288 54.386,343.348 53.679 C 343.035 53.444,342.810 53.326,342.848 53.418 M183.173 55.867 C 183.154 56.213,183.665 56.996,184.295 57.583 C 184.945 58.189,185.046 58.396,185.400 59.845 C 185.879 61.806,186.017 62.077,186.960 62.920 L 187.710 63.590 187.846 65.206 C 187.921 66.095,188.067 66.981,188.171 67.175 C 188.436 67.670,188.547 67.477,188.328 66.902 C 188.228 66.640,188.165 65.817,188.189 65.074 C 188.239 63.461,187.927 62.757,186.946 62.274 C 186.068 61.842,185.869 61.452,185.681 59.797 C 185.467 57.909,184.759 56.667,183.900 56.667 C 183.777 56.667,183.565 56.460,183.429 56.208 C 183.292 55.956,183.177 55.803,183.173 55.867 M236.762 57.478 C 236.856 58.436,237.605 59.566,238.444 60.014 C 239.438 60.547,239.542 61.012,239.631 65.334 C 239.734 70.321,239.462 71.082,237.312 71.839 C 236.971 71.959,236.586 72.259,236.428 72.526 L 236.148 73.000 236.647 73.000 C 236.922 73.000,237.193 73.075,237.250 73.167 C 237.485 73.547,238.374 73.337,238.897 72.778 C 239.406 72.235,239.983 71.054,239.635 71.270 C 239.531 71.334,239.503 71.253,239.563 71.063 C 240.023 69.601,240.218 61.569,239.813 60.781 C 239.541 60.251,238.805 59.500,238.558 59.500 C 238.237 59.500,237.168 58.504,237.154 58.191 C 237.147 58.040,237.036 57.617,236.908 57.250 L 236.674 56.583 236.762 57.478 M99.844 58.545 C 99.370 59.130,99.351 59.179,99.735 58.833 C 100.133 58.474,100.607 57.827,100.464 57.836 C 100.438 57.838,100.159 58.157,99.844 58.545 M133.417 57.988 C 134.932 58.084,135.667 58.328,135.667 58.733 C 135.667 59.598,136.937 60.292,138.791 60.442 C 139.502 60.499,140.196 60.629,140.333 60.731 C 140.545 60.888,140.551 60.876,140.374 60.648 C 140.258 60.500,139.808 60.334,139.374 60.279 C 137.903 60.091,137.272 59.821,136.550 59.072 C 135.588 58.073,134.921 57.827,133.271 57.863 L 131.917 57.892 133.417 57.988 M258.625 57.958 C 259.473 57.988,260.860 57.988,261.708 57.958 C 262.556 57.927,261.862 57.903,260.167 57.903 C 258.471 57.903,257.777 57.927,258.625 57.958 M302.728 59.500 C 302.728 60.462,302.756 60.856,302.790 60.375 C 302.823 59.894,302.823 59.106,302.790 58.625 C 302.756 58.144,302.728 58.538,302.728 59.500 M325.880 57.956 C 326.318 57.990,326.993 57.990,327.380 57.955 C 327.767 57.920,327.408 57.892,326.583 57.892 C 325.758 57.893,325.442 57.922,325.880 57.956 M265.913 73.167 C 265.913 81.554,265.934 84.985,265.958 80.792 C 265.983 76.598,265.983 69.735,265.958 65.542 C 265.934 61.348,265.913 64.779,265.913 73.167 M324.609 58.305 C 324.457 58.472,324.333 58.692,324.333 58.792 C 324.333 59.113,323.450 60.037,322.925 60.266 C 322.645 60.387,322.529 60.490,322.667 60.493 C 323.153 60.504,324.008 59.827,324.287 59.209 C 324.443 58.865,324.678 58.452,324.811 58.292 C 325.130 57.905,324.961 57.916,324.609 58.305 M328.517 58.386 C 328.737 58.599,329.036 58.997,329.183 59.272 C 329.547 59.956,330.397 60.316,331.944 60.440 C 332.662 60.498,333.362 60.629,333.500 60.731 C 333.712 60.889,333.718 60.876,333.540 60.647 C 333.424 60.499,332.974 60.330,332.540 60.271 C 331.146 60.082,330.214 59.682,329.649 59.031 C 329.129 58.433,328.570 58.018,328.267 58.006 C 328.185 58.003,328.298 58.174,328.517 58.386 M131.007 58.983 C 130.770 59.555,130.321 59.997,129.693 60.276 C 129.449 60.384,129.362 60.479,129.500 60.486 C 130.174 60.521,131.649 58.927,131.282 58.560 C 131.243 58.521,131.120 58.711,131.007 58.983 M218.684 59.091 C 218.350 59.658,217.264 60.321,216.656 60.330 C 216.150 60.337,215.561 61.215,215.367 62.250 C 215.264 62.800,215.133 63.409,215.076 63.604 C 214.980 63.932,215.885 64.504,216.123 64.266 C 216.161 64.228,216.032 64.146,215.836 64.084 C 215.497 63.977,215.485 63.903,215.593 62.611 C 215.725 61.033,216.005 60.595,216.980 60.439 C 217.325 60.384,217.961 60.150,218.395 59.920 C 219.506 59.329,221.303 59.322,222.354 59.904 C 222.755 60.126,223.383 60.361,223.750 60.426 C 224.677 60.589,225.331 61.004,225.438 61.498 C 225.652 62.483,225.838 62.771,225.761 62.001 C 225.671 61.085,225.168 60.623,223.839 60.235 C 222.984 59.986,221.833 59.079,221.833 58.655 C 221.833 58.570,221.203 58.500,220.433 58.500 L 219.033 58.500 218.684 59.091 M346.506 58.822 C 346.411 59.000,346.336 59.468,346.340 59.864 L 346.346 60.583 346.582 60.042 C 346.907 59.293,346.937 59.317,347.680 60.926 C 348.189 62.028,348.461 62.417,348.872 62.634 C 349.166 62.790,349.614 63.131,349.869 63.393 C 350.125 63.654,350.333 63.804,350.332 63.726 C 350.330 63.478,349.777 62.764,348.970 61.968 C 348.477 61.482,347.956 60.703,347.553 59.854 C 346.873 58.417,346.775 58.320,346.506 58.822 M377.999 59.375 C 377.754 59.710,377.714 59.827,377.894 59.680 C 378.167 59.458,378.580 58.833,378.454 58.833 C 378.422 58.833,378.218 59.077,377.999 59.375 M255.912 59.968 C 255.729 60.310,255.309 60.730,254.967 60.913 C 254.594 61.113,254.309 61.410,254.246 61.663 C 254.188 61.894,253.925 62.538,253.660 63.095 L 253.178 64.106 253.131 77.051 C 253.094 87.109,253.127 89.875,253.279 89.456 C 253.422 89.063,253.478 85.547,253.487 76.453 L 253.500 63.989 253.922 63.155 C 254.155 62.697,254.653 62.006,255.031 61.619 C 255.640 60.996,256.460 59.571,256.302 59.413 C 256.269 59.380,256.094 59.630,255.912 59.968 M361.853 59.792 C 361.895 60.776,362.086 61.184,362.667 61.530 L 363.250 61.877 362.808 61.480 C 362.524 61.225,362.294 60.770,362.166 60.208 C 361.947 59.247,361.822 59.081,361.853 59.792 M128.560 60.841 C 128.142 61.109,128.013 61.330,127.922 61.937 C 127.765 62.985,127.919 63.033,128.164 62.011 C 128.300 61.446,128.510 61.063,128.808 60.841 C 129.383 60.411,129.230 60.412,128.560 60.841 M321.787 60.796 C 321.303 61.096,320.932 62.049,321.037 62.721 C 321.073 62.950,321.175 62.745,321.313 62.167 C 321.458 61.560,321.682 61.124,321.975 60.876 C 322.500 60.431,322.426 60.400,321.787 60.796 M170.519 60.861 C 170.509 61.014,170.457 61.277,170.404 61.445 C 170.313 61.734,170.318 61.735,170.499 61.453 C 170.603 61.290,170.655 61.027,170.614 60.870 C 170.546 60.612,170.537 60.611,170.519 60.861 M168.980 62.814 C 168.625 63.170,168.334 63.563,168.334 63.689 C 168.334 63.814,168.484 63.672,168.666 63.373 C 168.848 63.075,169.241 62.681,169.540 62.499 C 169.839 62.317,169.981 62.168,169.855 62.167 C 169.730 62.167,169.336 62.458,168.980 62.814 M303.750 62.361 C 303.933 62.463,304.237 62.667,304.425 62.814 C 304.612 62.962,304.555 62.877,304.297 62.625 C 304.039 62.373,303.736 62.169,303.622 62.172 C 303.509 62.175,303.567 62.260,303.750 62.361 M165.167 62.385 C 165.167 62.414,165.410 62.658,165.708 62.927 L 166.250 63.417 165.760 62.875 C 165.304 62.370,165.167 62.257,165.167 62.385 M153.441 64.529 C 153.222 66.163,153.173 67.778,153.202 72.417 L 153.239 78.250 153.328 72.000 C 153.417 65.722,153.473 65.132,153.942 65.521 C 154.485 65.972,154.667 66.645,154.667 68.205 C 154.667 69.061,154.767 70.149,154.891 70.624 C 155.024 71.138,155.046 71.445,154.946 71.383 C 154.708 71.236,154.938 71.799,155.383 72.452 C 155.583 72.746,155.902 73.069,156.090 73.170 C 156.728 73.512,156.906 74.027,157.010 75.833 L 157.110 77.583 157.130 75.917 C 157.161 73.278,156.859 71.959,156.031 71.113 C 155.081 70.143,154.833 69.450,154.833 67.766 C 154.833 66.990,154.751 66.144,154.650 65.886 C 154.550 65.628,154.298 64.755,154.091 63.946 L 153.715 62.476 153.441 64.529 M346.410 70.667 C 346.410 75.112,346.432 76.931,346.458 74.708 C 346.484 72.485,346.484 68.848,346.458 66.625 C 346.432 64.402,346.410 66.221,346.410 70.667 M154.348 63.417 C 154.343 63.600,154.411 63.862,154.500 64.000 C 154.714 64.331,154.714 63.915,154.500 63.417 L 154.357 63.083 154.348 63.417 M350.426 65.330 C 350.527 66.941,350.805 67.561,351.676 68.113 C 352.710 68.767,353.333 69.360,353.333 69.688 C 353.333 69.866,353.484 70.457,353.668 71.003 L 354.002 71.996 352.575 73.456 C 350.999 75.068,350.633 75.648,350.350 76.983 C 350.091 78.204,350.216 78.226,350.552 77.018 C 350.840 75.981,351.460 75.088,352.013 74.913 C 352.195 74.855,352.501 74.474,352.693 74.066 C 353.062 73.279,354.001 72.386,354.625 72.226 C 355.087 72.108,355.088 72.128,354.597 71.371 C 354.375 71.030,354.098 70.423,353.981 70.024 C 353.816 69.456,353.501 69.055,352.539 68.190 C 351.125 66.918,350.894 66.546,350.571 65.023 L 350.337 63.917 350.426 65.330 M218.385 64.458 C 219.559 64.487,221.434 64.487,222.551 64.458 C 223.669 64.429,222.708 64.405,220.417 64.406 C 218.125 64.406,217.211 64.429,218.385 64.458 M374.535 64.996 C 374.308 65.185,374.052 65.705,373.902 66.281 C 373.763 66.813,373.466 67.577,373.242 67.978 C 372.703 68.941,372.725 69.166,373.303 68.612 C 373.562 68.365,373.836 68.219,373.913 68.289 C 373.990 68.359,374.003 68.328,373.941 68.220 C 373.876 68.107,373.965 67.981,374.151 67.921 C 374.800 67.716,375.500 66.808,375.497 66.177 C 375.496 65.732,375.454 65.646,375.333 65.833 C 375.215 66.016,375.171 65.894,375.169 65.375 C 375.166 64.585,375.086 64.537,374.535 64.996 M189.875 65.417 C 189.877 65.783,189.911 65.914,189.951 65.706 C 189.991 65.499,189.990 65.199,189.948 65.040 C 189.906 64.880,189.874 65.050,189.875 65.417 M166.545 65.667 C 166.545 66.079,166.578 66.248,166.618 66.042 C 166.657 65.835,166.657 65.498,166.618 65.292 C 166.578 65.085,166.545 65.254,166.545 65.667 M168.026 65.833 C 168.009 66.154,167.957 66.604,167.910 66.833 L 167.824 67.250 168.003 66.839 C 168.102 66.613,168.154 66.163,168.119 65.839 L 168.056 65.250 168.026 65.833 M278.207 66.042 L 277.667 66.599 277.667 73.381 L 277.667 80.162 278.317 80.592 L 278.968 81.023 284.859 80.953 C 292.182 80.865,292.558 80.802,293.034 79.583 C 293.213 79.125,293.466 78.632,293.596 78.487 C 294.110 77.917,293.803 77.797,293.225 78.342 C 292.890 78.658,292.681 78.804,292.760 78.667 C 292.971 78.302,291.760 79.334,291.319 79.895 C 290.613 80.795,290.332 80.833,284.406 80.833 C 279.568 80.833,278.915 80.802,278.484 80.547 L 278.000 80.261 278.000 73.412 L 278.000 66.562 278.467 66.115 L 278.935 65.667 284.426 65.674 C 289.515 65.680,289.959 65.704,290.500 66.000 C 290.821 66.176,291.024 66.323,290.952 66.326 C 290.879 66.330,291.010 66.539,291.243 66.790 C 291.476 67.041,291.667 67.292,291.667 67.347 C 291.667 67.402,291.925 67.586,292.240 67.756 C 292.555 67.926,292.768 68.144,292.713 68.241 C 292.658 68.338,292.676 68.359,292.753 68.289 C 292.830 68.219,293.105 68.365,293.363 68.612 C 293.982 69.205,293.953 69.002,293.203 67.500 C 292.256 65.600,292.292 65.608,284.748 65.540 L 278.747 65.485 278.207 66.042 M373.220 66.625 C 373.047 67.178,373.052 67.213,373.262 66.926 C 373.461 66.655,373.599 66.000,373.457 66.000 C 373.434 66.000,373.327 66.281,373.220 66.625 M125.906 70.667 C 125.906 73.188,125.930 74.219,125.958 72.958 C 125.986 71.698,125.986 69.635,125.958 68.375 C 125.930 67.115,125.906 68.146,125.906 70.667 M293.250 66.667 C 293.392 66.942,293.546 67.167,293.592 67.167 C 293.638 67.167,293.559 66.942,293.417 66.667 C 293.274 66.392,293.121 66.167,293.075 66.167 C 293.029 66.167,293.108 66.392,293.250 66.667 M319.073 70.667 C 319.073 73.096,319.096 74.090,319.125 72.875 C 319.153 71.660,319.153 69.673,319.125 68.458 C 319.096 67.244,319.073 68.237,319.073 70.667 M371.728 70.474 C 371.284 70.845,371.046 72.049,371.363 72.318 C 371.484 72.421,371.875 72.696,372.231 72.930 L 372.879 73.354 372.775 72.836 C 372.718 72.550,372.727 72.351,372.794 72.392 C 372.862 72.434,372.890 72.128,372.857 71.713 C 372.816 71.201,372.749 71.031,372.651 71.187 C 372.542 71.359,372.504 71.326,372.503 71.055 C 372.496 70.187,372.273 70.019,371.728 70.474 M94.241 70.792 L 85.731 70.836 85.124 71.460 L 84.517 72.083 84.467 81.032 C 84.433 87.030,84.471 89.861,84.582 89.616 C 84.680 89.398,84.781 85.734,84.832 80.547 C 84.910 72.484,84.939 71.823,85.214 71.547 C 85.490 71.272,86.150 71.244,94.214 71.165 C 100.376 71.105,103.038 71.023,103.333 70.884 L 103.750 70.688 103.250 70.717 C 102.975 70.734,98.921 70.767,94.241 70.792 M295.910 71.562 C 296.254 72.426,296.251 74.521,295.904 75.190 C 295.760 75.469,295.680 75.735,295.725 75.781 C 296.326 76.381,296.582 72.067,295.989 71.333 L 295.652 70.917 295.910 71.562 M178.798 75.785 C 178.883 78.433,179.077 78.870,180.423 79.428 C 181.187 79.745,181.116 79.600,180.308 79.194 C 179.301 78.688,179.002 78.005,178.988 76.184 C 178.982 75.303,178.924 74.449,178.859 74.285 C 178.794 74.121,178.767 74.796,178.798 75.785 M198.833 75.984 C 198.833 77.741,198.441 78.618,197.526 78.908 C 197.368 78.959,197.099 79.243,196.927 79.541 L 196.616 80.083 197.016 79.695 C 197.236 79.482,197.679 79.143,198.000 78.942 C 198.994 78.320,199.754 74.883,199.000 74.417 C 198.893 74.351,198.833 74.913,198.833 75.984 M177.534 76.000 C 177.493 77.903,177.215 78.577,176.250 79.120 C 175.883 79.326,175.696 79.495,175.833 79.497 C 177.010 79.507,177.707 78.114,177.625 75.916 L 177.569 74.417 177.534 76.000 M213.256 75.250 C 213.319 75.433,213.406 75.696,213.449 75.833 C 213.491 75.971,213.758 76.233,214.042 76.417 C 214.702 76.844,215.132 77.689,215.366 79.023 C 215.469 79.606,215.668 80.196,215.809 80.333 C 216.037 80.556,216.045 80.556,215.888 80.333 C 215.790 80.196,215.659 79.491,215.596 78.767 C 215.454 77.137,215.081 76.367,214.187 75.865 C 213.813 75.655,213.425 75.355,213.324 75.200 C 213.165 74.953,213.156 74.960,213.256 75.250 M228.927 75.854 C 228.565 75.939,228.253 76.025,228.232 76.046 C 228.211 76.066,230.186 76.083,232.619 76.083 C 236.261 76.083,236.930 76.049,236.397 75.888 C 235.620 75.653,229.894 75.627,228.927 75.854 M157.174 77.808 C 157.154 78.425,158.232 79.500,158.872 79.500 C 159.291 79.500,159.808 80.229,159.877 80.917 L 159.944 81.583 159.972 80.906 C 160.004 80.138,159.565 79.619,158.465 79.124 C 158.071 78.946,157.727 78.617,157.514 78.214 C 157.331 77.867,157.178 77.684,157.174 77.808 M201.766 79.294 C 201.658 80.212,201.667 80.238,202.311 80.905 C 203.413 82.048,203.689 82.788,203.646 84.484 C 203.602 86.171,203.877 86.759,204.972 87.321 C 205.686 87.687,206.185 88.199,206.572 88.966 C 207.040 89.891,207.693 90.165,209.427 90.166 C 211.049 90.167,211.606 90.455,211.906 91.448 C 211.966 91.649,212.277 92.042,212.597 92.323 L 213.178 92.833 220.563 92.833 C 226.416 92.833,228.108 92.785,228.723 92.600 C 229.150 92.471,229.458 92.434,229.407 92.516 C 229.003 93.170,230.639 92.035,231.183 91.285 C 231.449 90.917,231.668 90.684,231.669 90.767 C 231.671 90.849,231.727 90.830,231.794 90.725 C 231.862 90.619,232.349 90.341,232.878 90.107 C 233.550 89.810,233.927 89.523,234.128 89.153 C 234.612 88.266,235.177 87.668,235.861 87.319 C 236.893 86.793,237.165 86.184,237.166 84.406 C 237.167 82.719,237.314 82.469,238.722 81.756 C 239.668 81.277,240.030 80.472,239.778 79.408 L 239.583 78.583 239.533 79.456 C 239.485 80.289,238.878 81.263,238.250 81.516 C 237.504 81.816,236.833 83.027,236.833 84.073 C 236.833 85.581,236.727 85.769,234.763 87.733 C 232.876 89.620,232.666 89.763,230.960 90.324 C 230.147 90.591,229.667 90.872,229.221 91.342 C 227.952 92.682,228.053 92.667,220.299 92.667 L 213.427 92.667 212.089 91.247 C 210.756 89.834,210.746 89.828,209.917 89.826 C 208.286 89.824,208.026 89.681,205.999 87.665 L 204.105 85.782 203.990 84.349 C 203.904 83.264,203.751 82.648,203.361 81.809 C 203.078 81.200,202.723 80.211,202.572 79.612 C 202.213 78.183,201.911 78.064,201.766 79.294 M321.084 79.048 C 321.194 80.174,321.371 80.415,322.458 80.924 C 323.620 81.467,323.978 81.763,324.266 82.417 C 324.388 82.692,324.490 82.797,324.493 82.650 C 324.508 82.075,323.750 81.260,322.913 80.950 C 321.976 80.602,321.506 80.239,321.487 79.849 C 321.480 79.703,321.369 79.283,321.240 78.917 L 321.006 78.250 321.084 79.048 M127.922 79.246 C 128.020 80.235,128.116 80.344,129.507 81.043 C 130.388 81.485,130.650 81.716,130.951 82.312 C 131.601 83.601,131.714 83.667,133.282 83.667 C 134.925 83.667,135.620 83.379,136.456 82.356 C 137.030 81.652,137.913 81.261,139.373 81.062 C 139.808 81.003,140.258 80.838,140.373 80.696 C 140.549 80.478,140.543 80.462,140.333 80.593 C 140.196 80.679,139.399 80.832,138.562 80.933 C 136.841 81.139,136.209 81.472,135.766 82.407 C 135.009 84.002,131.638 84.035,131.243 82.451 C 131.082 81.804,130.329 81.101,129.546 80.867 C 128.722 80.620,128.439 80.302,128.104 79.250 L 127.839 78.417 127.922 79.246 M225.581 79.324 C 225.499 79.779,225.280 80.224,225.015 80.476 L 224.583 80.886 225.124 80.574 C 225.674 80.257,225.951 79.557,225.789 78.892 C 225.745 78.708,225.661 78.882,225.581 79.324 M293.094 80.292 C 292.734 80.752,292.705 80.829,292.985 80.585 C 293.319 80.293,293.760 79.667,293.631 79.667 C 293.605 79.667,293.363 79.948,293.094 80.292 M362.208 80.110 C 362.070 80.166,362.000 80.582,362.000 81.353 C 362.000 82.725,361.688 83.574,361.049 83.942 C 360.793 84.090,360.328 84.557,360.016 84.980 C 359.469 85.722,359.466 85.734,359.933 85.315 C 360.199 85.076,360.721 84.715,361.093 84.511 C 362.097 83.962,362.239 83.642,362.333 81.708 C 362.379 80.768,362.417 80.005,362.417 80.013 C 362.417 80.020,362.323 80.064,362.208 80.110 M196.539 80.667 C 196.539 80.987,196.573 81.119,196.615 80.958 C 196.657 80.798,196.657 80.535,196.615 80.375 C 196.573 80.215,196.539 80.346,196.539 80.667 M174.714 81.083 C 174.716 81.542,174.748 81.709,174.786 81.456 C 174.825 81.203,174.824 80.828,174.784 80.623 C 174.744 80.418,174.713 80.625,174.714 81.083 M333.430 80.645 C 333.381 80.724,332.723 80.844,331.969 80.909 C 330.261 81.058,329.454 81.443,329.004 82.325 C 328.398 83.513,325.774 84.060,324.763 83.208 C 324.417 82.917,324.417 82.917,324.734 83.292 C 325.516 84.215,328.812 83.648,329.583 82.458 C 330.004 81.808,330.787 81.411,332.167 81.148 C 333.026 80.984,334.118 80.500,333.629 80.500 C 333.569 80.500,333.479 80.565,333.430 80.645 M216.260 80.801 C 216.346 80.873,216.717 81.032,217.083 81.155 C 218.015 81.467,218.587 81.906,218.832 82.496 C 219.158 83.285,221.675 83.285,222.002 82.496 C 222.252 81.891,222.947 81.368,223.890 81.072 C 224.271 80.953,224.466 80.851,224.322 80.844 C 223.849 80.824,222.378 81.329,222.166 81.584 C 221.858 81.955,219.059 81.938,218.644 81.562 C 218.479 81.414,217.840 81.152,217.224 80.981 C 216.608 80.810,216.174 80.729,216.260 80.801 M346.340 81.599 C 346.328 83.087,346.793 83.208,347.434 81.883 L 347.951 80.815 347.396 81.353 L 346.841 81.891 346.594 81.320 L 346.346 80.750 346.340 81.599 M196.372 82.000 C 196.372 82.321,196.406 82.452,196.448 82.292 C 196.490 82.131,196.490 81.869,196.448 81.708 C 196.406 81.548,196.372 81.679,196.372 82.000 M305.827 82.042 C 305.412 82.715,305.284 83.186,305.380 83.691 C 305.432 83.965,305.461 83.901,305.477 83.481 C 305.520 82.345,305.991 82.000,307.501 82.000 C 309.030 82.000,309.424 82.323,309.543 83.677 L 309.608 84.417 309.638 83.681 C 309.658 83.156,309.546 82.739,309.243 82.223 L 308.819 81.500 307.491 81.500 C 306.171 81.500,306.159 81.504,305.827 82.042 M181.542 82.417 C 181.544 82.783,181.578 82.914,181.618 82.706 C 181.658 82.499,181.656 82.199,181.615 82.040 C 181.573 81.880,181.540 82.050,181.542 82.417 M378.500 82.744 C 378.500 82.980,379.606 84.330,379.875 84.422 C 380.743 84.720,381.025 85.525,381.048 87.766 C 381.072 90.179,381.286 89.936,381.447 87.314 C 381.569 85.343,381.242 84.561,380.057 83.987 C 379.663 83.797,379.152 83.416,378.921 83.141 C 378.689 82.866,378.500 82.687,378.500 82.744 M116.379 83.833 C 116.379 84.246,116.411 84.415,116.451 84.208 C 116.491 84.002,116.491 83.665,116.451 83.458 C 116.411 83.252,116.379 83.421,116.379 83.833 M195.666 83.875 C 195.421 84.210,195.381 84.327,195.561 84.180 C 195.834 83.958,196.247 83.333,196.121 83.333 C 196.089 83.333,195.884 83.577,195.666 83.875 M173.736 83.963 C 173.453 84.213,173.078 84.511,172.902 84.627 C 172.722 84.746,172.801 84.735,173.083 84.602 C 173.358 84.471,173.765 84.170,173.987 83.933 C 174.511 83.373,174.389 83.387,173.736 83.963 M364.004 83.673 C 364.012 84.206,364.665 85.313,365.527 86.256 C 366.027 86.803,366.779 87.702,367.199 88.254 C 367.840 89.098,370.000 90.900,370.000 90.591 C 370.000 90.510,369.534 89.524,369.012 88.500 C 368.942 88.362,368.468 88.049,367.959 87.803 C 367.104 87.389,366.167 86.466,366.167 86.037 C 366.167 85.937,365.848 85.644,365.458 85.385 C 365.031 85.101,364.601 84.620,364.375 84.172 C 364.169 83.763,364.002 83.539,364.004 83.673 M151.646 83.940 C 151.497 84.110,151.272 84.660,151.147 85.161 C 151.021 85.661,150.671 86.486,150.368 86.994 L 149.817 87.917 150.917 86.823 L 152.018 85.729 151.967 84.679 C 151.920 83.691,151.901 83.647,151.646 83.940 M305.205 84.833 C 305.205 85.154,305.240 85.285,305.282 85.125 C 305.323 84.965,305.323 84.702,305.282 84.542 C 305.240 84.381,305.205 84.512,305.205 84.833 M162.396 87.250 C 162.396 88.258,162.424 88.649,162.457 88.119 C 162.490 87.588,162.490 86.763,162.456 86.286 C 162.422 85.808,162.395 86.242,162.396 87.250 M194.061 87.083 C 194.061 88.000,194.089 88.354,194.123 87.869 C 194.157 87.385,194.156 86.635,194.122 86.203 C 194.088 85.770,194.060 86.167,194.061 87.083 M172.229 87.417 C 172.229 88.425,172.257 88.816,172.290 88.286 C 172.323 87.755,172.323 86.930,172.289 86.452 C 172.256 85.974,172.229 86.408,172.229 87.417 M344.037 86.132 C 343.932 86.434,343.680 86.922,343.478 87.216 L 343.111 87.750 343.703 87.195 L 344.294 86.640 344.463 87.278 C 344.556 87.629,344.639 87.767,344.646 87.583 C 344.654 87.400,344.563 86.875,344.444 86.417 L 344.228 85.584 344.037 86.132 M116.995 86.455 C 117.093 86.659,117.341 86.907,117.545 87.005 C 117.891 87.172,117.895 87.168,117.612 86.939 C 117.444 86.804,117.196 86.556,117.061 86.388 C 116.832 86.105,116.828 86.109,116.995 86.455 M310.000 86.219 C 310.000 86.248,310.244 86.491,310.542 86.760 L 311.083 87.250 310.594 86.708 C 310.138 86.203,310.000 86.090,310.000 86.219 M304.167 86.858 C 303.846 87.140,303.734 87.294,303.919 87.200 C 304.223 87.046,304.978 86.324,304.817 86.340 C 304.780 86.344,304.487 86.577,304.167 86.858 M118.792 87.887 C 119.090 88.231,119.333 88.581,119.333 88.667 C 119.333 89.072,120.410 89.999,121.176 90.253 C 121.631 90.404,121.961 90.596,121.909 90.679 C 121.858 90.762,121.945 90.780,122.102 90.720 C 122.296 90.645,122.349 90.673,122.268 90.805 C 122.201 90.912,122.214 91.000,122.295 91.000 C 122.377 91.000,122.547 91.194,122.674 91.430 C 122.975 91.993,124.193 92.710,124.589 92.558 C 124.781 92.484,124.849 92.507,124.778 92.621 C 124.701 92.746,127.160 92.805,133.043 92.820 C 137.648 92.832,141.656 92.885,141.947 92.937 C 142.952 93.118,144.667 92.070,144.667 91.275 C 144.667 90.841,145.592 90.179,146.460 89.993 C 147.579 89.753,147.591 89.589,146.480 89.737 C 145.567 89.858,144.411 90.650,143.986 91.444 C 143.377 92.581,143.408 92.577,134.762 92.643 C 125.934 92.710,126.068 92.725,124.767 91.514 C 124.124 90.916,123.592 90.611,122.583 90.262 C 120.977 89.705,120.302 89.314,120.010 88.769 C 119.890 88.544,119.444 88.113,119.020 87.811 L 118.250 87.263 118.792 87.887 M311.940 87.854 C 312.228 88.164,312.510 88.572,312.567 88.762 C 312.730 89.306,313.499 89.915,314.542 90.327 C 315.069 90.535,315.500 90.769,315.500 90.847 C 315.500 91.065,316.502 92.156,316.898 92.369 C 317.456 92.669,317.928 92.689,327.250 92.809 C 337.322 92.939,336.991 92.978,337.668 91.580 C 338.131 90.623,338.605 90.242,339.625 90.004 C 340.748 89.742,340.753 89.590,339.634 89.739 C 338.714 89.861,337.726 90.566,337.132 91.525 C 336.484 92.571,336.528 92.566,327.929 92.637 C 319.105 92.710,319.238 92.725,317.933 91.519 C 317.290 90.925,316.718 90.600,315.583 90.183 C 314.294 89.709,313.947 89.494,313.107 88.646 C 312.023 87.550,311.032 86.877,311.940 87.854 M302.787 87.849 C 302.624 87.944,302.304 88.317,302.077 88.677 C 301.823 89.079,301.309 89.532,300.748 89.849 C 299.889 90.334,299.224 90.903,299.938 90.543 C 300.110 90.456,300.603 90.218,301.035 90.014 C 301.543 89.774,301.950 89.426,302.187 89.030 C 302.389 88.693,302.705 88.248,302.889 88.042 C 303.258 87.630,303.235 87.588,302.787 87.849 M369.333 88.292 C 369.551 88.590,369.755 88.833,369.787 88.833 C 369.914 88.833,369.501 88.208,369.227 87.986 C 369.047 87.840,369.087 87.956,369.333 88.292 M344.705 88.667 C 344.705 88.987,344.740 89.119,344.782 88.958 C 344.823 88.798,344.823 88.535,344.782 88.375 C 344.740 88.215,344.705 88.346,344.705 88.667 M241.581 89.812 C 241.667 91.336,241.932 91.978,242.721 92.566 C 243.226 92.942,248.864 93.012,249.963 92.655 C 250.264 92.557,250.002 92.540,249.188 92.606 C 243.933 93.028,242.341 92.369,241.738 89.523 L 241.503 88.417 241.581 89.812 M266.085 89.812 C 266.165 91.317,266.431 91.977,267.181 92.537 C 267.628 92.870,295.004 93.026,296.216 92.702 C 296.461 92.637,291.207 92.608,284.539 92.638 C 265.988 92.723,266.833 92.879,266.164 89.245 C 266.033 88.533,266.022 88.612,266.085 89.812 M182.664 89.787 C 182.662 90.362,182.617 90.514,182.500 90.333 C 182.379 90.147,182.338 90.237,182.336 90.689 C 182.333 91.271,183.301 92.454,183.834 92.521 C 183.925 92.532,184.206 92.573,184.458 92.612 C 186.390 92.907,192.107 92.830,192.636 92.502 C 193.304 92.087,193.776 91.093,193.905 89.833 L 193.999 88.917 193.787 89.836 C 193.222 92.295,192.603 92.668,189.100 92.663 C 185.612 92.658,184.456 92.137,183.848 90.293 C 183.744 89.980,183.436 89.559,183.163 89.357 L 182.667 88.990 182.664 89.787 M162.603 90.079 C 162.879 92.487,163.482 92.833,167.395 92.833 L 170.488 92.833 171.076 92.318 C 171.656 91.808,172.186 90.550,172.152 89.761 C 172.144 89.572,172.044 89.755,171.929 90.168 C 171.645 91.197,171.443 91.536,170.751 92.144 L 170.155 92.667 167.340 92.667 C 163.866 92.667,163.294 92.326,162.669 89.878 C 162.520 89.295,162.515 89.309,162.603 90.079 M356.265 89.751 C 356.115 89.980,355.681 90.364,355.302 90.603 C 354.923 90.842,354.436 91.249,354.219 91.506 C 353.392 92.490,352.689 92.667,349.615 92.667 L 346.834 92.667 346.167 92.064 C 345.676 91.621,345.415 91.192,345.176 90.439 C 344.797 89.242,344.714 89.706,345.085 90.954 C 345.253 91.521,345.532 91.973,345.924 92.318 L 346.512 92.833 349.813 92.833 C 352.164 92.833,353.337 92.766,353.890 92.600 C 354.317 92.471,354.624 92.434,354.573 92.516 C 354.389 92.815,354.797 92.657,355.469 92.170 C 356.073 91.732,357.016 90.431,356.496 90.753 C 356.360 90.836,356.327 90.777,356.391 90.563 C 356.764 89.311,356.724 89.050,356.265 89.751 M373.131 92.697 C 373.288 92.759,374.354 92.810,375.500 92.810 C 376.646 92.810,377.712 92.759,377.869 92.697 C 378.026 92.634,376.960 92.583,375.500 92.583 C 374.040 92.583,372.974 92.634,373.131 92.697 " stroke="none" fill="#00000d" fill-rule="evenodd"></path></g></svg>